<svg id="Layer_1" data-name="Layer 1" xmlns="http://www.w3.org/2000/svg" xmlns:xlink="http://www.w3.org/1999/xlink" viewBox="0 0 294.34 182.41"><defs><style>.cls-1{fill:none;}.cls-2{clip-path:url(#clip-path);}.cls-3{fill:#fff;}.cls-4{fill:#010000;}.cls-5{fill:#fd9801;}.cls-6{fill:#f8f9f9;}.cls-7{fill:#f8fafa;}.cls-8{fill:#f0f6f2;}.cls-9{fill:#f1f6f1;}.cls-10{fill:#1a1313;}.cls-11{fill:#fe9801;}.cls-12{fill:#8c9b9b;}.cls-13{fill:#482f03;}.cls-14{fill:#a56700;}.cls-15{fill:#96620b;}.cls-16{fill:#1b1a1a;}.cls-17{fill:#231e1e;}</style><clipPath id="clip-path"><rect class="cls-1" x="-1217.12" y="-316.53" width="1920" height="1080"/></clipPath></defs><title>simplemech-chest</title><g class="cls-2"><path class="cls-3" d="M118.69,72.9c8.14-6.44,17-9.89,27.19-9.83s19,3.8,27,10.18c3.42-2.25,6.75-4.42,10.07-6.61q27-17.79,54-35.58c11.61-7.63,23.25-15.19,34.89-22.78,3.07-2,6.14-4,9.26-6a9.19,9.19,0,0,1,3-1.33c2.45-.46,4.81-.25,6.54,1.9a7.33,7.33,0,0,1,1.32,7.63,14,14,0,0,1-4,5.33L274.74,27.67Q256.32,44.11,237.88,60.5a6.71,6.71,0,0,0-2.62,5.69c.09,6.7-.23,13.4-.36,20.11a19.38,19.38,0,0,0,.24,3.32,12.19,12.19,0,0,1-2.37,9.49c-2.46,3.34-5.12,6.54-7.74,9.76q-12.4,15.22-24.86,30.42c-5.68,6.9-11.34,13.83-17.78,20.08a40.16,40.16,0,0,0-2.7,3.34c-8.66,10.45-19.46,16.95-33.28,17.38A40.19,40.19,0,0,1,116.7,169a105.9,105.9,0,0,1-7.28-8.23c-.73-.85-1.3-1.83-2.07-2.62-7.62-7.78-14.32-16.33-21.21-24.72q-12-14.62-24-29.28-2-2.41-3.85-4.9a12.5,12.5,0,0,1-2.48-7.61q0-9.81-.05-19.63c0-2.39-.1-4.8.12-7.18a4.48,4.48,0,0,0-1.68-4.17C50,57,45.92,53.19,41.74,49.47,29.21,38.32,16.64,27.21,4.16,16A24.79,24.79,0,0,1,.32,11.17,6.91,6.91,0,0,1-.67,8a6.75,6.75,0,0,1,9.2-7,15.57,15.57,0,0,1,3.33,1.85Q42.76,23,73.64,43.14C87.92,52.51,102.12,62,116.36,71.43c.66.44,1.34.85,2.33,1.47"/><path class="cls-4" d="M119,79.19c1.39-1.11,2.61-2.14,3.87-3.1a36.82,36.82,0,0,1,21.69-7.93,36.39,36.39,0,0,1,24.7,8.89c3.47,2.89,2.53,3.09,6.78.3q46-30.3,92.11-60.59c4.41-2.9,8.85-5.75,13.28-8.61.94-.6,1.9-1.17,2.86-1.74a1.89,1.89,0,0,1,2.59.34,2.1,2.1,0,0,1,.29,2.66,24.82,24.82,0,0,1-3.36,4c-3.75,3.47-7.62,6.82-11.43,10.23q-20.24,18-40.48,36c-1.51,1.33-1.71,2.61-1.65,4.56.21,6.54,0,13.09,0,19.63a44,44,0,0,0,0,6.19,9.56,9.56,0,0,1-2.12,7.6c-1.58,2-3.18,4-4.8,6q-14,17.06-28,34.11a239.47,239.47,0,0,1-16.54,18.63,31.23,31.23,0,0,0-2.71,3.33,40.23,40.23,0,0,1-10.11,9.46c-12.81,8.33-26.11,8.69-39.52,1.65-5.3-2.78-9.35-7.17-12.92-12-1.33-1.78-2.79-3.48-4.24-5.18-5.7-6.68-11.49-13.29-17.11-20C83.52,123,74.84,112.36,66.13,101.73c-1.22-1.48-2.36-3-3.58-4.5a8,8,0,0,1-1.84-5.32q0-12.45,0-24.91A22.75,22.75,0,0,1,61,62.71a3.23,3.23,0,0,0-1.29-3.33c-4.78-4.24-9.51-8.54-14.28-12.79Q26.78,30,8.14,13.47a27.62,27.62,0,0,1-2.69-2.72,4.38,4.38,0,0,1-1.06-2.1,3.63,3.63,0,0,1,.55-2.18,1.56,1.56,0,0,1,2.14-.4c1.27.67,2.51,1.41,3.71,2.19Q40.51,27.64,70.2,47.05c15,9.82,29.85,19.75,44.78,29.62,1.31.87,2.67,1.66,4.06,2.52"/><path class="cls-3" d="M184.52,121.64c-.35,12.64-3.75,24.87-12.1,35.45a40.11,40.11,0,0,1-11.85,10.31c-10.63,6-21.26,5.95-31.82-.22a40.92,40.92,0,0,1-13.33-12.85,50.76,50.76,0,0,1-8.68-26.46c-.58-11.59,1.55-22.55,7.18-32.74a44.62,44.62,0,0,1,15-16.42c15.85-10.12,34.48-5.2,44.52,8.8,8.14,11.36,10.82,21.47,11,34.13"/><path class="cls-3" d="M65.82,88.22a8.94,8.94,0,0,1-.88-2.61c0-6.53.07-13.06.16-19.58a1.72,1.72,0,0,1,.65-1c.11-.1.6.12.83.31.74.59,1.45,1.24,2.17,1.87C80.41,77.54,92,88,103.76,98.26a3.93,3.93,0,0,1,1.35,4.89,63.35,63.35,0,0,0-2.75,19.31c0,.87.37,1.86-.66,2.83L90,113c-3.57-1.25-4.75-4.79-7-7.3l-.2-.22a1.16,1.16,0,0,0-.75-.76l-.2-.2a1.2,1.2,0,0,0-.76-.76l-.19-.2a1.25,1.25,0,0,0-.77-.77l-.18-.19a1.36,1.36,0,0,0-.78-.78l-.17-.18a1.58,1.58,0,0,0-.78-.81l-.15-.15a2,2,0,0,0-.81-.84l-.12-.13a2.5,2.5,0,0,0-.83-.85l-.11-.12a3.09,3.09,0,0,0-.84-.85l-.11-.12a3.81,3.81,0,0,0-.84-.86l-.11-.11a5.25,5.25,0,0,0-.83-.87l-.1-.11c-.27-.3-.55-.59-.85-.87l-.09-.09c-.28-.3-.57-.59-.86-.87l-.09-.09-.87-.88L70.52,93l-.87-.88L69.57,92c-.3-.28-.59-.57-.88-.87l-.08-.09c-.3-.28-.59-.58-.87-.88l-.08-.08a12.32,12.32,0,0,1-.88-.89l-.07-.07a8.51,8.51,0,0,1-.89-.91"/><path class="cls-3" d="M188.51,126.16c.34-8.76-.41-16.19-2.67-23.42-.53-1.68.32-2.63,1.48-3.66q12.56-11.08,25-22.24,5.35-4.77,10.73-9.54c.67-.6,1.41-1.11,2.07-1.62,1.12.72.71,1.6.72,2.31.07,5.42,0,10.85.18,16.27a5.56,5.56,0,0,1-1.79,4.62c-4.42,4.38-8.74,8.85-13,13.35-6.27,6.58-12.48,13.22-18.72,19.82-1.06,1.12-2.15,2.2-4,4.11"/><path class="cls-5" d="M53.4,45.9a149.24,149.24,0,0,0,13.49,8.5c-5-4.66-10.12-9.1-15.47-13.29a3.41,3.41,0,0,1,3.25.2Q61.35,45.86,68,50.4c1.44,1,2.93,1.91,4.4,2.85.67,1.18,1.92,1.62,3,2.33l-.09,0a31.57,31.57,0,0,0,3,2l-.09-.07c9,6.79,18.87,12.3,27.21,19.94A18,18,0,0,1,108.24,80c.54.76,1.25,1.63.51,2.56s-1.73.51-2.64.23c-1.31-.92-2.62-1.81-3.9-2.74q-9.48-6.94-18.95-13.89a7.77,7.77,0,0,0-1.71-.77c-.07,0-.26.18-.34.31s-.17.33-.12.4a9,9,0,0,0,1.38,1.82q12.42,10.19,24.87,20.32c.62.51,1.25,1,1.87,1.5a1.57,1.57,0,0,1,.48,2.11c-.65,1.27-1.32,2.54-2.1,4a16.06,16.06,0,0,1-2-1.3Q78.9,70.78,52.27,47c-.12-.87.17-1.33,1.13-1.07"/><path class="cls-5" d="M238.55,48q-13.37,12-26.73,24-12.31,11-24.67,21.94c-.82.73-1.68,1.41-2.45,2.06-.47-.28-.83-.38-.95-.6-2.73-5.12-2.81-4.07,1.47-7.53,8.19-6.62,16.31-13.32,24.43-20a5.61,5.61,0,0,0,1-1.48c.05-.09-.06-.29-.13-.42s-.26-.36-.31-.34a7.8,7.8,0,0,0-1.71.78q-7.19,5.16-14.34,10.37c-.77.56-1.56,1.08-2.35,1.62-1.81-.26-2.75,1.44-4.22,1.9s-3.58,2-4.64,0c-.84-1.6,1.12-2.63,2.45-3.52,6.33-4.22,12.54-8.61,19-12.56,5.7-3.46,11.17-7.25,16.87-10.69,1-.57,1.78-1.38,3-1.11,2.74,2.16,4.16-2,6.57-1.39a1.34,1.34,0,0,0,.8-.38,1.84,1.84,0,0,0,1-.67l.07-.05a2.87,2.87,0,0,1,1.1-.79,1.3,1.3,0,0,0,.73-.43,1.43,1.43,0,0,0,.94-.69l1.87-1.08c1-.23,1.31.21,1.17,1.14"/><path class="cls-6" d="M185.6,141.92c.74-3,1.49-4.85,1.58-6.72.18-3.81,2.18-6.43,4.68-9C202.47,115.1,213,103.93,223.5,92.8a22.66,22.66,0,0,1,2.11-1.93.79.79,0,0,1,.77.08,1,1,0,0,1,.1.85,18.77,18.77,0,0,1-1.42,1.9l-24.78,30.47c-4.12,5.08-8.22,10.18-12.35,15.26-.49.61-1.06,1.15-2.33,2.49"/><path class="cls-7" d="M88.61,114.39c4,4.5,8,9.06,12.13,13.48a9,9,0,0,1,2.71,5.36,82.15,82.15,0,0,0,1.77,8.19c-1.29-1.26-2.1-1.92-2.74-2.71Q84.84,117,67.22,95.28c-.68-.84-1.52-1.57-2.29-2.36a1.68,1.68,0,0,1-.05-2.59L69,94a.88.88,0,0,0,.66.7l.2.22a1.36,1.36,0,0,0,.75.79l.16.18a2,2,0,0,0,.79.82l.14.16a2.81,2.81,0,0,0,.79.82l.15.16a3.89,3.89,0,0,0,.8.82l.14.15a7,7,0,0,0,.8.84l.12.13.83.85.11.12c.29.28.57.56.84.86l.1.1a8.83,8.83,0,0,1,.86.87l.09.1a6.43,6.43,0,0,1,.86.87l.09.09a5.18,5.18,0,0,1,.86.89l.07.08a3.58,3.58,0,0,1,.88.9l.06.06a3.39,3.39,0,0,1,.9.91l0,.06a2.9,2.9,0,0,1,.9.91l.08.08a11.18,11.18,0,0,1,6.57,6.84"/><path class="cls-8" d="M225.09,52.75a7.09,7.09,0,0,0-1.75.6q-17.88,11.46-35.72,23c-1.52,1-3.26,1.84-4.33,3.87,2.56-.16,4.48-1.28,6.44-2.24a1.46,1.46,0,0,1,2.09.33c-4,3.11-7.88,6.39-12.27,9.35-1.45-1.92-2.79-3.67-4.2-5.53a14.16,14.16,0,0,1,1.51-1.29L235.4,43c1-.27,1.29.23,1.28,1.1l-3.05,2.78a2.07,2.07,0,0,1-1.26,1,.32.32,0,0,0-.43.27,1.26,1.26,0,0,0-1,.8l-.1.07a5.4,5.4,0,0,0-1,.83l-.05,0a4.07,4.07,0,0,1-1.06,1.34,9.3,9.3,0,0,1-.9.59,5.46,5.46,0,0,1-.89.49,7.28,7.28,0,0,1-1.39.45h-.48"/><path class="cls-9" d="M106.11,82.76l2.61-.56a9.42,9.42,0,0,0-1.15-1.47C101.77,76,96,71.17,90.1,66.58c-3.26-2.53-6.84-4.65-10.25-7-.72-.51-1.74-.9-1.63-2.1a8.36,8.36,0,0,1,1.73.66q17.05,11,34.09,22c.79.5,1.49,1.15,2.33,1.81l-4.19,5.51a33.17,33.17,0,0,1-6.07-4.65"/><path class="cls-10" d="M88.61,114.39,82,107.55c.33-.6.65-1.21,1-1.81l7,7.3-1.39,1.35"/><path class="cls-11" d="M54.67,41.31l-3.25-.2-9.64-7c3.14.35,5,1.42,12.89,7.2"/><path class="cls-3" d="M236.68,44.07,235.4,43a44.45,44.45,0,0,1,11.72-7.46l-.07-.09c-.06.29,0,.72-.18.85-3.38,2.62-6.79,5.21-10.19,7.8"/><path class="cls-11" d="M53.4,45.9,52.27,47a51.78,51.78,0,0,1-10.54-9.56l.11-.1c.3.06.67,0,.89.2q5.35,4.17,10.67,8.38"/><path class="cls-5" d="M238.55,48l-1.17-1.14c3.27-2.49,6.52-5,9.81-7.46.2-.15.61,0,.92,0l-.07-.06a32,32,0,0,1-2.72,3.08c-2.2,1.94-4.51,3.75-6.77,5.61"/><path class="cls-5" d="M228.37,50.71l1.44-.83,1.09,1c-1.74,1.32-3.46,2.66-5.24,3.93-.27.2-.82,0-1.24,0,.12-.42.24-.84.37-1.26s.2-.57.3-.86l-.07,0c.52-.57,1.48-.38,1.91-1.1l-.05.07a12.73,12.73,0,0,1,1.49-1"/><path class="cls-5" d="M75.41,55.58a2.65,2.65,0,0,1-3-2.33c1.21.49,2.49.9,3,2.33"/><path class="cls-9" d="M78.31,57.54c-1.58.22-2.35-.79-3-2a3.8,3.8,0,0,1,3,2"/><path class="cls-10" d="M64.88,90.33c0,.86,0,1.73.05,2.59-1.31-.49-1.27-1.53-1-2.62a3.54,3.54,0,0,1,.95,0"/><path class="cls-12" d="M249.1,34.61l-2,.81.07.09c.33-1.12,1.23-.86,2-.83Z"/><path class="cls-10" d="M75.29,100.65l-.83-.85.83.85"/><path class="cls-10" d="M76.31,98.9l.83.85-.83-.85"/><path class="cls-10" d="M74.34,99.67l-.8-.84.8.84"/><path class="cls-10" d="M75.36,97.93l.84.85-.84-.85"/><path class="cls-10" d="M77.26,99.88l.81.84-.81-.84"/><path class="cls-10" d="M81.09,103.8l.76.76c-.25-.26-.51-.51-.76-.76"/><path class="cls-10" d="M73.4,98.68l-.8-.82.8.82"/><path class="cls-10" d="M82.05,104.76l.75.76-.75-.76"/><path class="cls-10" d="M81,106.5l-.9-.91.9.91"/><path class="cls-10" d="M74.41,97l.84.86L74.41,97"/><path class="cls-10" d="M72.45,97.7l-.79-.82.79.82"/><path class="cls-10" d="M73.47,96l.84.87L73.47,96"/><path class="cls-10" d="M71.52,96.72c-.27-.27-.53-.55-.79-.82.26.27.52.55.79.82"/><path class="cls-10" d="M72.52,95l.85.87L72.52,95"/><path class="cls-10" d="M70.57,95.72l-.75-.79.75.79"/><path class="cls-10" d="M71.57,94l.86.87L71.57,94"/><path class="cls-10" d="M69.62,94.71,69,94l.66.7"/><path class="cls-10" d="M79.1,104.55c-.29-.29-.57-.59-.86-.89.29.3.57.6.86.89"/><path class="cls-10" d="M69.65,92.1l.87.88-.87-.88"/><path class="cls-10" d="M68.69,91.14l.88.87-.88-.87"/><path class="cls-10" d="M67.74,90.17l.87.88-.87-.88"/><path class="cls-10" d="M66.78,89.2l.88.89-.88-.89"/><path class="cls-10" d="M76.24,101.63l-.84-.86.84.86"/><path class="cls-10" d="M82,107.47l-.9-.91.9.91"/><path class="cls-10" d="M65.82,88.22l.89.91-.89-.91"/><path class="cls-13" d="M232.37,47.87l1.26-1-1.26,1"/><path class="cls-10" d="M78.22,100.87l.78.81-.78-.81"/><path class="cls-13" d="M230.92,48.94l1-.8-1,.8"/><path class="cls-13" d="M235.51,47.92l-.94.69.94-.69"/><path class="cls-14" d="M248.11,39.35l.3-.74c.76.71-.1.53-.37.68Z"/><path class="cls-13" d="M229.86,49.84l1-.83-1,.83"/><path class="cls-13" d="M233.84,49l-1.1.79,1.1-.79"/><path class="cls-15" d="M41.73,37.42,41.1,37c.53-.56.6,0,.74.32Z"/><path class="cls-10" d="M80.05,105.53l-.88-.9.88.9"/><path class="cls-12" d="M249.15,34.68l0-.33a2.5,2.5,0,0,0-.07.26l.05.07"/><path class="cls-13" d="M232.67,49.88l-1,.67Z"/><path class="cls-10" d="M77.2,102.6l-.86-.87.86.87"/><path class="cls-10" d="M79.17,101.85l.78.79-.78-.79"/><path class="cls-10" d="M78.15,103.57l-.86-.87.86.87"/><path class="cls-10" d="M80.13,102.83c.26.25.51.51.77.77-.26-.26-.51-.52-.77-.77"/><path class="cls-10" d="M70.61,93.06l.87.88-.87-.88"/><path d="M141.54,117.57c.19-1.88.3-3.77.57-5.64.48-3.31,1.09-6.61,1.58-9.93a6.68,6.68,0,0,0,0-2.36c-.21-1-.86-1.84-2-1.72a3,3,0,0,0-2,1,6.56,6.56,0,0,0-.9,2.67c-.8,5-1.52,10.09-2.3,15.13a3.53,3.53,0,0,1-.54,1.3,1.14,1.14,0,0,1-.75.52.92.92,0,0,1-.71-.5,6.63,6.63,0,0,1-.64-2.22c0-2.23.12-4.47.17-6.7a17.5,17.5,0,0,0-.06-3.32c-.08-.51-.71-1.3-1.09-1.3a2.7,2.7,0,0,0-2,.81,5.12,5.12,0,0,0-1,2.64c-.25,4-.59,8-.47,12a23.54,23.54,0,0,1-.44,7.12A40.17,40.17,0,0,0,127.93,138a23,23,0,0,1-2.76,11,14.48,14.48,0,0,1-1.28,1.66c-2-3.45-2.74-7-3.42-10.57a85.77,85.77,0,0,1-1.18-15.27c-.06-5.91,0-11.82,1.14-17.66a40.25,40.25,0,0,1,4-11.74,22.78,22.78,0,0,1,17.84-12.2,39.1,39.1,0,0,1,12.41.37,18.62,18.62,0,0,1,14.52,11.91,45.52,45.52,0,0,1,3.05,13,114.15,114.15,0,0,1,0,23.45A51.42,51.42,0,0,1,169,145.91c-3.62,9-10.27,14-19.91,15a32.6,32.6,0,0,1-13.12-1c1.29-4,2.72-7.78,5.35-11a16.75,16.75,0,0,1,4-3.28c2.15-1.37,4.49-2.44,6.65-3.8a15.09,15.09,0,0,0,4.11-3.23c2.19-2.87,5.2-4.69,7.92-6.89.62-.49,1.37-.82,2-1.3.88-.66,2.09-1.36,1.53-2.64-.47-1.07-1.73-1.3-2.89-1.39a8.39,8.39,0,0,0-5.75,2c-1.67,1.23-3.35,2.45-5.1,3.56-1,.64-1.85,0-1.8-1.19a32.42,32.42,0,0,1,2.6-11.14c1.7-4.13,3.42-8.25,5.07-12.4a15.51,15.51,0,0,0,1-3.67,2.17,2.17,0,0,0-1.52-2.21,1.91,1.91,0,0,0-2.47.86,15.41,15.41,0,0,0-1.48,3c-1.52,3.86-3,7.75-4.5,11.6-.63,1.56-2,2.52-2.2,1.9a5.81,5.81,0,0,1-.05-2.75c1.35-5.41,2.81-10.8,4.2-16.2a2.32,2.32,0,0,0-1.44-3.1,1.91,1.91,0,0,0-2.54.59,15.13,15.13,0,0,0-1.21,3.09c-1.39,5.24-2.69,10.51-4.09,15.74a6.59,6.59,0,0,1-1.19,1.76l-.6-.22"/><path class="cls-16" d="M180.72,130.5a40.66,40.66,0,0,1-2.79,12.08,4.68,4.68,0,0,1-1.57,1.69,1.19,1.19,0,0,1-1.11-.35,3.49,3.49,0,0,1-.26-1.83c.18-1.09.54-2.15.83-3.23,1-3.85,2.21-7.65,2.26-11.7a3.1,3.1,0,0,1,1-1.93c.43-.4,1.33.7,1.53,2,0,.31.08.63.1.95,0,.48,0,1,0,2.37"/><path class="cls-17" d="M179.46,117.16c-1.14,0-1.88-.89-1.85-2.23a1.94,1.94,0,0,1,2-2.1,2.17,2.17,0,0,1-.17,4.33"/><path class="cls-5" d="M226.93,51.67a1.59,1.59,0,0,1-1.91,1.1,1.53,1.53,0,0,1,1.91-1.1"/><path class="cls-5" d="M228.37,50.71l-1.49,1c.13-.88.74-1.06,1.49-1"/></g></svg>