<svg id="Layer_1" data-name="Layer 1" xmlns="http://www.w3.org/2000/svg" xmlns:xlink="http://www.w3.org/1999/xlink" viewBox="0 0 119.03 166.64"><defs><style>.cls-1{fill:none;}.cls-2{clip-path:url(#clip-path);}.cls-3{fill:#fff;}.cls-4{fill:#cdcdcd;}.cls-5{fill:#fefefe;}.cls-6{fill:#fdfdfd;}.cls-7{fill:#fc9700;}.cls-8{fill:#f4f7f7;}.cls-9{fill:#f3f3f3;}.cls-10{fill:#312a2a;}.cls-11{fill:#f4f5f5;}.cls-12{fill:#f5f6f6;}.cls-13{fill:#e7ecec;}.cls-14{fill:#ebecec;}.cls-15{fill:#f8f9f9;}.cls-16{fill:#dee1e1;}.cls-17{fill:#f8f8f8;}.cls-18{fill:#ebf0f0;}.cls-19{fill:#e3e9e9;}.cls-20{fill:#dce4e4;}.cls-21{fill:#373030;}.cls-22{fill:#474747;}.cls-23{fill:#d2d4d4;}.cls-24{fill:#312b2b;}.cls-25{fill:#3d3131;}.cls-26{fill:#b2b8b8;}.cls-27{fill:#f9fefe;}.cls-28{fill:#b5bbbb;}.cls-29{fill:#afb2b2;}.cls-30{fill:#4f5959;}.cls-31{fill:#7c8787;}.cls-32{fill:#889191;}.cls-33{fill:#110f0f;}.cls-34{fill:#100d0d;}.cls-35{fill:#101111;}.cls-36{fill:#1c1818;}.cls-37{fill:#1c1713;}.cls-38{fill:#231a10;}.cls-39{fill:#150d00;}.cls-40{fill:#edf4f4;}.cls-41{fill:#e3ebeb;}.cls-42{fill:#d98300;}.cls-43{fill:#f19200;}</style><clipPath id="clip-path"><rect class="cls-1" x="-1300" y="-566.97" width="1920" height="1080"/></clipPath></defs><title>simplemech-head-mod</title><g class="cls-2"><path class="cls-3" d="M36.26,21.64c2.7-11.3,9.33-19,21.35-19.74C72.47,1,80.44,9.63,83.52,24.11l6.39-6.6a9.35,9.35,0,0,1,4.35-2.84,5.75,5.75,0,0,1,7.14,4,6,6,0,0,1-.08,3.25A34.91,34.91,0,0,1,99,27.15c-2,4-4.17,7.91-6.3,11.83a3.11,3.11,0,0,0-.32,3.16c3,5.56,4,11.74,5.58,17.76.67,2.61.73,2.64,3.56,2.77s5.42.24,8.13.42c4.75.31,7.55,2.82,8.6,8.11a17.75,17.75,0,0,1,.21,3.34c0,5.75-.07,11.51,0,17.26.06,3.39-.76,6.32-3.49,8.49a2,2,0,0,0-.91,2.43c1.59,5.58,1.57,11.37,2,17.08.86,11,1.44,22,2.16,33,.21,3.18.72,6.35.75,9.53,0,5.33-2.17,7.88-7.49,8.76a43.84,43.84,0,0,1-7.15.48q-43.16,0-86.3,0c-4,0-8,.05-12,0-3.2,0-5-1.3-6-4.43a15.35,15.35,0,0,1-.86-4.67c.07-4.78.23-9.57.61-14.34q.89-11,2.14-21.92c.72-6.34,1.67-12.65,2.52-19,.17-1.27.25-2.55.51-3.79a2.56,2.56,0,0,0-1.1-2.86A12.33,12.33,0,0,1-.74,90c.12-5.26.09-10.54.25-15.8a14.22,14.22,0,0,1,.88-4.67c1.27-3.2,3.66-5.24,7.23-5.38,3.36-.13,6.72-.1,10.07-.06A2.1,2.1,0,0,0,20,62.27c.71-3,1.42-5.9,2.19-8.83,1.22-4.63,2.54-9.25,5.24-13.29.85-1.29.54-2.28-.13-3.51-2-3.63-3.92-7.31-5.8-11a23.21,23.21,0,0,1-1.66-4c-1.24-4.29,2.26-7.73,6.9-7.08a8.44,8.44,0,0,1,4.8,3c1.31,1.38,2.7,2.68,4.08,4,.09.08.31,0,.62.06"/><path d="M100.26,97.94a13.68,13.68,0,0,0,.12,2.06c.52,2.41.61,2.46,3.17,2.57,5.37.22,6,.73,6.62,6,.53,4.76.92,9.53,1.26,14.31.71,10,1.32,20.07,2,30.11.19,2.7.7,5.39.79,8.09.16,4.74-.67,5.54-5.47,5.74-2.07.09-4.15.1-6.23.1H16.25c-3.19,0-6.39-.15-9.58-.13a2.14,2.14,0,0,1-2.3-1.95A18,18,0,0,1,4,160.53c.36-6.54.69-13.08,1.28-19.59C6,133.63,6.84,126.33,7.74,119c.57-4.59,1.34-9.16,2.06-13.73.32-2,1.11-2.61,3.26-2.74.95-.06,1.92,0,2.87,0,1.75-.09,3.18-2.76,2.25-4.26A1.66,1.66,0,0,0,17,97.71q-3.82-.13-7.67-.12A4.2,4.2,0,0,1,5,94.46a11.72,11.72,0,0,1-.7-3.73c0-5.11.08-10.22.15-15.33A11.65,11.65,0,0,1,4.55,74c.46-3.59,1.54-4.65,5.28-4.79,3-.11,6.07,0,9.11,0,1.41,0,3.21.47,4.13-.21s1-2.54,1.32-3.9c.74-2.94,1.42-5.9,2.13-8.85,1.32-5.47,3.05-10.77,6.49-15.32,1-1.26.65-2.29,0-3.51-2.12-3.94-4.17-7.91-6.25-11.87a20.45,20.45,0,0,1-1.29-2.56c-.31-.92-1.68-2-.18-2.84,1.22-.68,2.06.51,2.8,1.3,3,3.14,5.87,6.32,8.8,9.48.87.93,1.73,1.89,2.68,2.72a1.41,1.41,0,0,0,1.29,0,1.54,1.54,0,0,0,.75-1.07,23.72,23.72,0,0,0-.22-2.37c-.08-2.07-.21-4.15-.15-6.22.22-8.8,8.06-16.58,17.07-17A17.84,17.84,0,0,1,75,15.31c3.13,4.85,4.54,10.18,3.1,16A3.3,3.3,0,0,0,78,33.16a3.6,3.6,0,0,0,1.57,1.61,1.85,1.85,0,0,0,1.64-.36c1.26-1.22,2.39-2.58,3.58-3.87,2.82-3.05,5.63-6.1,8.48-9.12A6.43,6.43,0,0,1,95.13,20c.32-.15.9.09,1.27.3a.86.86,0,0,1,.23.81,29.55,29.55,0,0,1-1.36,3.05c-2.52,4.81-5,9.62-7.63,14.38-1,1.8-1.3,3.23-.07,5.26,3,5,4.19,10.66,5.51,16.25.45,1.86.79,3.75,1.25,5.61s.75,2.14,2.58,2.19c3.2.09,6.39.06,9.59.14,5.74.14,7,1.43,7.1,7.11s0,11.18,0,16.77c0,.48,0,1,0,1.44-.22,2.77-1.45,4.06-4.19,4.21-1.91.11-3.84,0-5.75.07-1.09,0-2.18.19-3.39.31"/><path class="cls-4" d="M25.94,120.68l-1.43,0c-1.6.07-2.32.58-2,1.25.44,1,1.32.67,2,.72,1.27.08,2.54,0,3.81,0H89.38a24.76,24.76,0,0,0,2.86,0c1-.12,2.54.62,2.6-1.1,0-1.25-1.6-.56-2.2-1.26a2.48,2.48,0,0,1-.26-.4c2.11-3.85,4.48-7.47,8.39-9.77l.11-.12a1.3,1.3,0,0,0,.72-.82,6.22,6.22,0,0,1,.73-.63c1.45-1,2.14-.77,2.26.68.35,4,.59,8,1,11.93.8,7.79,1.7,15.56,2.53,23.35.58,5.37,1.12,10.76,1.7,16.37-1.11.1-2,.25-2.95.25H10c-1,0-1.37-.67-1.3-1.57.15-2.23.28-4.46.54-6.68q2.2-18.79,4.46-37.59c.27-2.22.49-4.45.91-6.64.24-1.2,1.18-.66,1.9-.38,4.13,3.38,8.4,6.65,9.44,12.38"/><path class="cls-5" d="M58.52,117.7c-2.71,0-5.42,0-8.13-.06-.43,0-.85-.7-1.25-1.11-.09-.09-.08-.3-.08-.46-.07-2.54.42-5.28-.35-7.59a45.26,45.26,0,0,0-4.91-9.75A22,22,0,0,1,40,84.33a57.46,57.46,0,0,0,0-9.55c-.17-2.39.9-3.9,2.58-5.27a1.89,1.89,0,0,1,2.19-.3c2.27,1.13,4.56,2.26,6.8,3.46a4.54,4.54,0,0,1,1.8,1.48C55,76.88,56.62,79.63,58,82.49a8.53,8.53,0,0,1,.3,3.27q.26,8.83.49,17.67c1.57,4.79,2.23,9.56-.3,14.27"/><path class="cls-6" d="M78.67,71c0,6.52-.09,13-.1,19.55a11.41,11.41,0,0,1-1.49,5.92,61.58,61.58,0,0,1-4.2,6.9,14.81,14.81,0,0,0-3.34,10.09c.19,4.73.24,4.27-4.43,4.28-1.43,0-2.86-.06-4.29-.08-2-4.39-1.54-8.83-.31-13.28.24-6,.5-12.1.71-18.15.05-1.6-.11-3.13,1.75-4.06.75-.37,1.19-1.44,1.67-2.25,1-1.65,1.93-3.3,2.77-5a11,11,0,0,1,4.7-5.2c3.17-3.38,4.15-3.18,6.56,1.29"/><path class="cls-7" d="M46,25.68A12.9,12.9,0,0,1,50.3,15.3c4.36-3.93,9.22-4.69,14.66-2.57C72.87,15.8,78.11,29.52,69,37c-1,.81-1.79,2.26-3.49,1.7a31.12,31.12,0,0,1,1.09-3.52c.69-1.61,1.59-3.12,2.31-4.72a2,2,0,0,0-1.37-2.61c-1.34-.35-3.14.52-2.91,1.65.68,3.33-1.31,5.79-2.48,8.5-.73,1.69-2.36,1.89-3.38.5-1.12-1.55-2-3.25-3.13-4.81-.78-1.1.15-2.21-.17-3.22A2.66,2.66,0,0,0,54,28.85a2.65,2.65,0,0,0-2.12.63,2.4,2.4,0,0,0-.65,2.06c1,2,2.29,3.82,3.43,5.73a.82.82,0,0,1-.14.78c-.18.15-.55.12-.84.12a1.09,1.09,0,0,1-.43-.19c-4.74-2.8-7.74-6.62-7.26-12.3"/><path class="cls-8" d="M61.54,61.24c4.34-4.89,8.68-9.76,13-14.66,1.91-2.16,3.75-4.37,5.67-6.51a6.56,6.56,0,0,1,1.51-1c1,1.28.36,2.45-.37,3.51-5.88,8.54-11.85,17-18.15,25.26-1.41,1.84-3.18,2.27-4.76.21-6.9-8.94-14-17.78-19.41-27.74.11-.77.34-1.39,1.33-1.09C45.47,45.15,50.55,51,55.68,56.88c1.15,1.3,2.49,2.42,3.75,3.61,1.13-1,.17,4,2.11.75"/><path class="cls-9" d="M79.61,53.38a46.2,46.2,0,0,1,3.52-6.15A22.08,22.08,0,0,1,84.54,50,376.53,376.53,0,0,1,96.75,97.61c.14.78.17,1.58.34,2.36.47,2.2-.31,3.69-2.62,4.6a67.72,67.72,0,0,1-1.28-7.44c-1.7-12-3.82-23.89-7.69-35.4a58.3,58.3,0,0,0-2.9-6.52c-.35-.72-1-1.26-1.92-.66-.87.08-1.36-.19-1.07-1.17"/><path class="cls-10" d="M39.56,40.07c6.7,9.81,13.7,19.41,20.92,29A8,8,0,0,0,61.75,68Q71.5,54.44,81.21,40.84a5.48,5.48,0,0,0,.52-1.72l-.11.09a.77.77,0,0,1,.82-.35.81.81,0,0,1,.26.86c.22.68.81,1.52.6,2A39,39,0,0,1,80.85,46c-.75-.09-.74.63-1.06,1l.07-.08c-3.07,3.76-5.27,8.12-8.21,12-2.27,4-5.43,7.4-8,11.24-1.86,2.82-3.9,2.26-5.78.1a82.84,82.84,0,0,1-9.37-13.1c-2.37-2.89-4.11-6.21-6.26-9.26l.08.1c-.53-.78-.87-1.74-1.94-2-1.5-1.13-2-2.86-2.53-4.5-.11-.32.63-.93,1-1.41s.48-.35.69,0"/><path class="cls-11" d="M48.9,56.58,60.08,71.32a3.59,3.59,0,0,0,.94.13.78.78,0,0,0,.37-.28q4.89-6.39,9.76-12.79c.94-.15,1.39.2,1.19,1.19q-4.71,8.5-9.42,17c-.14.25-.48.4-1,.78l-.88-3.11-1.88,3.93L49,59.5a6.84,6.84,0,0,0-.71-1.12,1,1,0,0,1-.35-.72c-.32-1,.19-1.16,1-1.08"/><path class="cls-12" d="M96,73.87h13c.29.39.62.62.63.86.24,8,1.25,7.19-6.76,7.28-1.72,0-3.45-.24-5.17-.37-.46-1.64-1-3.26-1.37-4.91-.18-.76-.2-1.57-.36-2.86"/><path class="cls-13" d="M60.85,51.94c-3.56.07-6.78-.83-8.84-3.86a81.47,81.47,0,0,0-6.73-8,8.93,8.93,0,0,1-1-1.55.44.44,0,0,1,.09-.44c.2-.16.54-.41.67-.33a16.41,16.41,0,0,1,1.55,1.07,36.85,36.85,0,0,0,4.67,3.29c1.91,1,2.85,2.08,2.82,4.36,0,2,1.13,2.93,3,3,2.55.08,5.11,0,7.66-.09,1.74-.09,2.39-.88,2.63-2.77a15.27,15.27,0,0,0,.09-1.91,2.23,2.23,0,0,1,1-2c2-1.38,3.83-2.84,5.79-4.19a1.49,1.49,0,0,1,1.29.11,1,1,0,0,1,.35,1.61c-2.62,3.21-5.21,6.45-8,9.53a7.31,7.31,0,0,1-3.27,1.75,19.73,19.73,0,0,1-3.79.42"/><path class="cls-14" d="M15.43,82.08c-.16,0-.32,0-.48,0-1.71-.17-3.52.37-5.11-.7-.1-2-.28-4.1-.25-6.15,0-.38.83-1.06,1.3-1.07,3.51-.1,7-.08,10.54,0,.31,0,.63.57.9.9.08.1.05.31,0,.46-.25,6.17-.64,6.54-6.94,6.58"/><path class="cls-15" d="M97.75,84.14c2.41,0,4.16-.06,5.89,0,1.89.08,3.78.29,5.66.44,1.13,2.27.42,4.66.41,7,0,.4-.7,1-1.19,1.17a5.21,5.21,0,0,1-1.9.08l-7.13-.29c-1.2-2.48-1.26-5.18-1.74-8.41"/><path class="cls-16" d="M39.37,95.77c-1.92-1.3-2.89-2.6-2.88-4.68,0-7.15,0-14.3-.07-21.46a2.45,2.45,0,0,1,.89-2c1.55-1.36,3-2.79,4.77-4.41,2.47,1.39,5,2.75,7.38,4.2A1.4,1.4,0,0,1,50,68.59c-.25.81-1,.52-1.52.29-1.32-.54-2.62-1.15-4-1.64a2.38,2.38,0,0,0-2.64.54c-.79.78-1.58,1.57-2.39,2.34a3.32,3.32,0,0,0-1,2.55c0,6.2,0,12.4,0,18.6a29.13,29.13,0,0,0,.83,4.5"/><path class="cls-17" d="M20.88,84.36c-.47,2.86-.9,5.46-1.36,8.28-1.26.08-2.31.19-3.36.2-7.32,0-7.43-.07-6.56-7.23.06-.48.65-1.24,1-1.27a57.44,57.44,0,0,1,10.24,0"/><path class="cls-18" d="M72.13,66.15l4.1-2.87a4.72,4.72,0,0,1,.72.4c1.66,1.49,3.94,2.71,4.8,4.58s.28,4.32.28,6.52c0,5.27,0,10.55,0,15.82a15.46,15.46,0,0,1-.49,2.74.69.69,0,0,1-.3.34c-.25-.16-.66-.34-.67-.54-.08-1-.06-1.91-.06-2.86,0-5.76.05-11.51,0-17.26,0-1.07.32-2.27-.72-3.12-1.89-2.61-5.34-2.05-7.67-3.75"/><path class="cls-19" d="M18.36,107.39a2.76,2.76,0,0,1,3.31.94c2.32,2.75,4.78,5.38,7.16,8.07,1.1,1.23,1.08,1.25-.83,2.7-4.65-2.73-8.27-6.29-9.64-11.71"/><path class="cls-20" d="M91.35,118.82a2.86,2.86,0,0,1-.93,0c-1.39-.57-1.66-1.15-.9-2,1.87-2.16,3.79-4.27,5.69-6.4.84-.94,1.67-1.9,2.54-2.82.66-.69,1.47-.34,2.24-.2a1,1,0,0,1,.19,1,.9.9,0,0,0-.39.7c-2.17,3.83-4.35,7.64-8.44,9.82"/><path class="cls-21" d="M18.36,107.39c.12.44.1,1,.38,1.31,3.06,3.49,6.17,6.94,9.26,10.4a2.15,2.15,0,0,1-2.06,1.58c-1.93-2.49-3.86-5-5.77-7.47-1.24-1.62-2.45-3.27-3.67-4.91l1.86-.91"/><path class="cls-22" d="M60.51,104.39q.15,6.63.31,13.28l-2.3,0c.07-3.33.15-6.67.22-10,0-1.42,0-2.85.08-4.27l1.69,1"/><path class="cls-23" d="M32.36,56.08a23.28,23.28,0,0,1,4.2-11c2.3,2.36,2.31,2.37,1,4.13Q35,52.67,32.36,56.08"/><path class="cls-24" d="M91.35,118.82,99.79,109l1,1.15a50.82,50.82,0,0,1-8.39,9.77l-1-1.1"/><path class="cls-25" d="M72.13,66.15c.31.26.69.8.93.74A5.39,5.39,0,0,0,74.68,66c1.08-.72,2-.7,2.81.42S79,68.75,79.8,69.9L78.67,71a1.58,1.58,0,0,1-.41-.21c-1-.9-1.83-2.3-3-2.57-.89-.22-2.12.94-3.19,1.48-1.31-2.16-1.31-2.16,0-3.57"/><path class="cls-26" d="M72.34,59.57l-1.19-1.19c2.62-3.76,5.23-7.52,7.88-11.26.13-.19.54-.17.83-.25a10.87,10.87,0,0,1-.8,2.13c-2.21,3.54-4.47,7-6.72,10.57"/><path class="cls-27" d="M60,45.43h-.58a2,2,0,0,1-1.61-3,1.5,1.5,0,0,1,1.07-.7,36.33,36.33,0,0,1,3.76.12c1,.08,1.22.81,1.24,1.65s-.24,1.58-1.17,1.74a23.19,23.19,0,0,1-2.71.18"/><path class="cls-28" d="M48.9,56.58l-1,1.08c-1.9-3-3.81-5.95-5.67-8.95-.13-.2,0-.59.07-.89,1.47.48,1.92,1.92,2.71,3,1.38,1.87,2.61,3.85,3.89,5.77"/><path class="cls-29" d="M79.61,53.38l1.07,1.17c-1.25,1.8-2.49,3.6-3.77,5.37a.77.77,0,0,1-.76.16.81.81,0,0,1-.24-.77c1.2-2,2.46-4,3.7-5.93"/><path class="cls-30" d="M61.54,61.24v4.59c-.91-1.26-1.38-1.66-1.52-2.16a30.22,30.22,0,0,1-.59-3.18l2.11.75"/><path class="cls-31" d="M81.77,38.34l3.09-4c.94,1.08.27,1.68-.1,2.28-.65,1.06-1.37,2.08-2.06,3.11a.52.52,0,0,1-.12-.74,2.64,2.64,0,0,1-.81-.64"/><path class="cls-32" d="M39.56,40.07h-.35l-.34,0-2.46-4.46.29-.3a8.25,8.25,0,0,1,3.67,4l-.81.8"/><path class="cls-28" d="M40.43,45.94l.7-.41,1.24,2.39c-1.38,0-1.19-1.43-1.94-2"/><path class="cls-26" d="M79.79,47c.13-1.48.13-1.48,1.06-1l-1.06,1"/><path class="cls-24" d="M100.18,108.3c-.07-.32-.13-.63-.2-1,.86.33.86.33.2,1"/><path class="cls-8" d="M81.77,38.34l.81.64-1,.23.15-.87"/><path class="cls-24" d="M101.6,109.21l-.73.82.73-.82"/><path class="cls-32" d="M36.41,35.57c-.15-.31-.31-.61-.46-.91l.75.61Z"/><path class="cls-28" d="M48.25,58.38c.23.38.47.75.71,1.12-.24-.37-.48-.74-.71-1.12"/><path class="cls-33" d="M21.54,146.51c1.61-.2,3.11,0,4.07,1.64a5.56,5.56,0,0,1,.4,5.46A6.19,6.19,0,0,1,22.17,157a5,5,0,0,1-6.44-5.45c.5-3.21,2.8-5.71,5.81-5"/><path class="cls-34" d="M35,146.5c3,0,4.69,1.57,4.77,4.56a6,6,0,0,1-5,6.05A5,5,0,0,1,29,151.76c.25-3.37,2.42-5.27,6-5.26"/><path class="cls-35" d="M99.29,147.63q-.58-5.67-1.18-11.36c-.23-2.19.3-3.7,1.31-3.54,1.66.26,1.72,1.71,1.82,3,.34,3.95.64,7.91.85,11.87a6.5,6.5,0,0,1-.46,3.27c-.66,1.27.05,3.4-2.17,3.75-1-1.24-.32-2.7-.51-4a20.82,20.82,0,0,1,0-2.85l.37,0"/><path class="cls-36" d="M92.17,148.05a16,16,0,0,1,.64-3,2,2,0,0,1,1.44-1,1.85,1.85,0,0,1,1.49.89,5.91,5.91,0,0,1-1,6.22,1.05,1.05,0,0,1-1.6-.18c-.39-1-.69-2.06-1-2.94"/><path class="cls-37" d="M49.84,88.21a50.45,50.45,0,0,1,0,5.22,3.5,3.5,0,0,1-3.22,3,4,4,0,0,1-3.8-2.33,5,5,0,0,1-.4-1.83c0-2.85-.09-5.7,0-8.55A3.79,3.79,0,0,1,46,80a3.85,3.85,0,0,1,3.87,3.46,7.45,7.45,0,0,1,.07,1v3.8Z"/><path class="cls-38" d="M76.17,88.41c0,1.42.09,2.85,0,4.27a3.83,3.83,0,0,1-3.57,3.76A3.44,3.44,0,0,1,68.85,93,68.82,68.82,0,0,1,69,83a3.49,3.49,0,0,1,5.78-2.22,3.94,3.94,0,0,1,1.33,2.37,45.26,45.26,0,0,1,.06,5.21h0"/><path class="cls-39" d="M54.54,22.46c.2-1.47.36-3,.62-4.58.13-.76.34-1.77,1.3-1.71a5.45,5.45,0,0,1,2,1c.12.07.18.26.28.38.71.79.82,2.41,2.15,2.26.79-.1,1.44-1.17,2.22-1.7,1.44-1,2.93-.5,3.16,1.32s.88,2.38,2.64,2.47a1.74,1.74,0,0,1,1.69,2.32c-.1.39-.59,1-.85,1-1.54-.15-3.07-.43-4.59-.73a1.2,1.2,0,0,1-.71-.6c-.69-1.47-1.41-1.83-2.84-.62s-2.24.05-3.14-1c-.74-.88-1.15-.75-1.47.43-.49,1.84-1,3.47-3.51,2.72-.32-.09-.79.28-1.16.49-1.41.76-1.93.59-2.19-.69-.48-2.36.25-3.09,2.78-2.73.31,0,.62.1.94.12a3.18,3.18,0,0,0,.69-.15"/><path class="cls-40" d="M23.67,150.49a12.77,12.77,0,0,1-.85,2.31,2.33,2.33,0,0,1-2.94.71,2,2,0,0,1-.84-2.46,4.32,4.32,0,0,1,.85-1.63c.63-.75,1.51-1.33,2.44-.73.59.38.9,1.18,1.34,1.8"/><path class="cls-41" d="M31.88,152.05a18.21,18.21,0,0,1,.81-2,2.72,2.72,0,0,1,2.69-1.56c1,.28,1.68,1.88,1.29,3.24s-1.61,2.37-2.79,2c-.76-.25-1.33-1.08-2-1.66"/><path class="cls-42" d="M44.58,88.29c0-1.44-.1-2.88,0-4.31a1.49,1.49,0,0,1,1.6-1.43,1.52,1.52,0,0,1,1.53,1.53q.12,4.31,0,8.61a1.44,1.44,0,0,1-1.6,1.42,1.54,1.54,0,0,1-1.54-1.52c-.1-1.42,0-2.87,0-4.3h0"/><path class="cls-43" d="M73.88,88c0,1.58.05,3.16,0,4.73,0,.81-1,1.51-1.67,1.17a2,2,0,0,1-1-1.31c-.1-2.83-.07-5.68-.05-8.52a1.22,1.22,0,0,1,.33-.85,1.81,1.81,0,0,1,1.14-.63c.38,0,1,.42,1.07.73.25,1.54.35,3.11.5,4.67Z"/></g></svg>