<svg id="Layer_1" data-name="Layer 1" xmlns="http://www.w3.org/2000/svg" xmlns:xlink="http://www.w3.org/1999/xlink" viewBox="0 0 128.25 393.35"><defs><style>.cls-1{fill:none;}.cls-2{clip-path:url(#clip-path);}.cls-3{fill:#fff;}.cls-4{fill:#f90;}.cls-5{fill:#fe9900;}.cls-6{fill:#fefefe;}.cls-7{fill:#cccdcd;}.cls-8{fill:#f7f8f8;}.cls-9{fill:#f9fafa;}.cls-10{fill:#cbcbcb;}.cls-11{fill:#f7fafa;}.cls-12{fill:#fc9902;}.cls-13{fill:#fafbfb;}.cls-14{fill:#f1f4f4;}.cls-15{fill:#fcfbf9;}.cls-16{fill:#fbfcfc;}.cls-17{fill:#e6e7e7;}.cls-18{fill:#e3e5e5;}.cls-19{fill:#f6f9f9;}.cls-20{fill:#f6f5f3;}.cls-21{fill:#f59300;}.cls-22{fill:#fcf7f4;}.cls-23{fill:#f89702;}.cls-24{fill:#e8e9e9;}.cls-25{fill:#e48900;}.cls-26{fill:#e5ecec;}.cls-27{fill:#f3f0f0;}.cls-28{fill:#eaefef;}.cls-29{fill:#f5fafa;}.cls-30{fill:#f5efed;}.cls-31{fill:#eaeeee;}.cls-32{fill:#e5ebe6;}.cls-33{fill:#ed8a03;}.cls-34{fill:#e4e8e8;}.cls-35{fill:#120e00;}.cls-36{fill:#231f1f;}.cls-37{fill:#090808;}.cls-38{fill:#1f1313;}.cls-39{fill:#262121;}</style><clipPath id="clip-path"><rect class="cls-1" x="-1696.42" y="-272.67" width="1920" height="1080"/></clipPath></defs><title>simplemech-arm-2-mod</title><g class="cls-2"><path class="cls-3" d="M96.28,64.87a53.89,53.89,0,0,1,5.06,37.5,39.45,39.45,0,0,1-3.81,10.78,6.47,6.47,0,0,1-5.74,3.7c-2.07.08-4.15.07-6.23.14-1.69.05-2.1.35-2.11,1.85,0,5.59,0,11.19,0,16.78,0,1,.61,1.4,1.53,1.38a18.91,18.91,0,0,1,7.52,1.08,8.66,8.66,0,0,1,5.33,5.15,16.25,16.25,0,0,1,1,2.69,8,8,0,0,0,4.25,5.84c2.39,1.41,3.62,4,4.48,6.61a27.73,27.73,0,0,1,.82,13.26,12.7,12.7,0,0,1-5.17,8.35,6,6,0,0,0-2.52,4.35c-.43,2.67-1.14,5.29-1.79,7.92-1.12,4.49-4.09,7.07-8.52,8.08-.63.14-1.25.27-1.88.39-.91.17-1.44.63-1.25,1.62.29,1.55.24,3.17,1.35,4.52a8.29,8.29,0,0,1,1.7,5.85,4.6,4.6,0,0,0,1.36,3.43A29.09,29.09,0,0,1,97,226.24a115.4,115.4,0,0,1,4.73,20c2.34,15.57,2.2,31.2,1.39,46.86-.2,3.83-.41,7.66-.48,11.49A191.83,191.83,0,0,1,100.52,326a9.23,9.23,0,0,1-5.06,7.16,2.81,2.81,0,0,0-1.62,3.1c.15,1.91.28,3.83.42,5.74.5,6.68,1,13.37,1.53,20a16.18,16.18,0,0,1-5,13.42,87.43,87.43,0,0,1-18.59,14.25c-6.5,3.7-13.55,3.28-20.2-.22A31.33,31.33,0,0,1,45.8,385c-1.39-1.25-2.61-2.13-4.62-1.79a17.44,17.44,0,0,1-7.57-.78A16.65,16.65,0,0,1,21,364.06a52.13,52.13,0,0,1,1.92-7.89,19.14,19.14,0,0,0,.85-6.55,33.7,33.7,0,0,1,2.62-15c.36-.88.73-1.77,1.15-2.63a1.63,1.63,0,0,0-.42-2.14c-2.25-2-2.54-4.56-2.89-7.33a175.24,175.24,0,0,1-.89-28.23c.58-16.11,1.37-32.23,4.45-48.12,1.46-7.55,3.33-15,7.09-21.75a19.69,19.69,0,0,1,1.42-2.5c1.51-1.92,2.83-3.82,2.07-6.5a4.33,4.33,0,0,1,.31-2.35c1.31-3.9,2.64-7.8,4.08-11.65a4,4,0,0,0,.13-2.75,40.68,40.68,0,0,1-1.62-6.48,20.94,20.94,0,0,1,3.08-13.76,7.56,7.56,0,0,0,1.15-6.29,24.17,24.17,0,0,1-.31-5.72q-.09-18.93-.14-37.87a2.65,2.65,0,0,0-.3-.82c-1.18-.26-1.55.84-2.23,1.38a14.48,14.48,0,0,1-17.37.51,15.71,15.71,0,0,1-6.26-8.11c-4.36-12.16-9.08-24.2-13.62-36.3C4.06,82,2.85,78.66,1.79,75.32c-2.06-6.43-.3-12,4.33-16.66a11.55,11.55,0,0,1,9.14-3.46,3.74,3.74,0,0,0,3.37-1.32c7.06-8.19,15.71-14.5,24.65-20.41A205.82,205.82,0,0,1,93.22,9.62c6.2-2,12.65-3.31,19-4.74a69.36,69.36,0,0,1,8.53-1.13c3.76-.37,6.42,1.4,7.17,4.82a6.84,6.84,0,0,1-.15,3.24,27,27,0,0,1-2.1,5.33c-6.64,12-12.87,24.26-20.7,35.58-2.81,4.07-5.76,8-8.72,12.15"/><path d="M90.22,65.39c7,10,8.62,20.66,7.11,32a85.16,85.16,0,0,1-1.88,8.89A25.58,25.58,0,0,1,94,109.78a4.23,4.23,0,0,1-4.45,2.92c-2.08-.09-4.16-.08-6.23-.14-.79,0-1.59-.18-2.38-.13-1.86.12-2.5.78-2.51,2.71,0,6.23,0,12.47,0,18.7,0,2.24,0,4.47.06,6.71a1.66,1.66,0,0,0,1.79,1.79c2.08,0,4.16,0,6.23.09a19,19,0,0,1,3.77.49A4.45,4.45,0,0,1,93.64,146c.64,2.14,1.28,4.28,1.85,6.44.35,1.3.74,2.33,2.37,2.55,2.69.37,4.08,2.35,5,4.69a22.14,22.14,0,0,1,.63,12.28,6.73,6.73,0,0,1-4.14,5c-2,.79-2.48,2.13-2.75,4-.36,2.52-1,5-1.52,7.5-.17.78-.36,1.55-.6,2.31-1.19,3.74-3,5.27-6.93,5.4-2.39.08-4.79-.17-7.18-.17a2.42,2.42,0,0,0-1.53.71c-.16.15.07.89.31,1.23.45.65,1.2,1.13,1.54,1.82a16.47,16.47,0,0,1,1.92,4.82c.27,2.21.24,4.27,2.21,5.92,1.13,1,1,2.71.55,4.1A3,3,0,0,0,86.42,218c3.43,3.13,5.22,7.25,6.52,11.55a126.08,126.08,0,0,1,5.15,27.25,272,272,0,0,1,.06,38.3c-.26,3.83-.11,7.68-.43,11.5-.54,6.35-1.26,12.69-2,19a5,5,0,0,1-3.58,4.17c-3.39,1-3.57,3.13-3.23,6.18.87,7.94,1.37,15.91,2,23.87.1,1.28.09,2.56.16,3.83a10.38,10.38,0,0,1-2.93,7.87,52.22,52.22,0,0,1-5.59,5.24c-3.51,2.77-7.11,5.44-10.8,8C66,388.64,60,388.56,54,385.45a20.54,20.54,0,0,1-6-4.71,5.6,5.6,0,0,0-5.82-2.2,20.05,20.05,0,0,1-5.25,0c-6.57-.65-11.88-5.79-11.18-13.05a48.85,48.85,0,0,1,1.92-8.36,18.94,18.94,0,0,0,.91-7c-.59-6.92,1.63-13.22,5.08-19.14.89-1.53.84-1.59-.63-2.63-.27-.18-.53-.36-.81-.52-2.14-1.17-2.84-2.86-3.15-5.39a183,183,0,0,1-.72-33c.38-6.7.79-13.39,1.28-20.08a183.27,183.27,0,0,1,3.43-25.14c1.83-8.51,4.52-16.66,10.44-23.36a1.87,1.87,0,0,0,.3-2.21c-1.26-2.6-.64-4.93,1-7.18a4.63,4.63,0,0,0,1-2.55,8.93,8.93,0,0,1,2.4-6.56c.93-1,.66-2,.08-3a18.56,18.56,0,0,1-2.27-7.27,17.69,17.69,0,0,1,3.29-12.23,8.29,8.29,0,0,0,1.41-6.25c-.53-4.91-.76-9.87-.8-14.82-.1-13.74,0-27.49,0-41.23,0-1.12,0-2.24,0-3.36a1.37,1.37,0,0,0-1.52-1.44,14.15,14.15,0,0,0-3.33.18c-2,.47-2.87,1.69-2.86,3.79,0,.64.1,1.27.12,1.91a8.37,8.37,0,0,1-4.74,8.22c-3.48,1.83-6.66,1.34-9.83-1a12.54,12.54,0,0,1-4.53-5.93C17.69,104.75,12,89.65,6.43,74.52c-1.52-4.14-.57-7.9,2.26-11.14,2.26-2.6,5.12-3.83,8.58-2.67,1.2.39,2.08.4,2.93-.71,5.58-7.34,12.7-13,20.16-18.3a197.43,197.43,0,0,1,63.93-29.85,89.55,89.55,0,0,1,15.58-2.6,15.34,15.34,0,0,1,1.91-.08A1.26,1.26,0,0,1,123,10.83a35,35,0,0,1-2.09,5.32c-4.76,8.69-9.39,17.46-14.54,25.91C102.27,48.74,97.51,55,93.05,61.42c-.91,1.31-1.85,2.6-2.83,4"/><path class="cls-4" d="M40.36,359.3c-2.57-1-4-3.13-5.18-5.35a8.16,8.16,0,0,1-.76-3.65,31,31,0,0,1,6.37-19.13,78.6,78.6,0,0,0,7.93,2,88.42,88.42,0,0,0,21.44.86c2.53-.24,5.08-.29,7.62-.43,4.51,6.48,4.91,14,4.71,21.4-.09,3.16-3.69,4.94-7.31,4.57-2-.2-3.59-1.26-5.39-1.86l-4.07-3.8c-1.15-1.09-1.59-2.23-.63-3.74a1.65,1.65,0,0,0-.41-1.6,1.88,1.88,0,0,0-1.63.35c-1.47,1.15-2.85,2.42-4.26,3.64-2.61,1.12-4.67,3.11-7.17,4.43a18.2,18.2,0,0,1-11.26,2.32"/><path class="cls-5" d="M67.31,169.57A25.65,25.65,0,0,0,56,173c-.85.52-1.51,0-1.49-1,0-2.39.19-4.78.2-7.18q.07-23.7.11-47.42a21.84,21.84,0,0,1,.07-3.34A2.24,2.24,0,0,1,56,112.82a2.8,2.8,0,0,1,1.4-.11l8.55.42c1.43,2.71.47,5.59.46,8.37a113.73,113.73,0,0,0,1.23,16.7c.06.41.48.76.73,1.14a5.66,5.66,0,0,0,.92-1.25,25,25,0,0,0,.73-2.7c2.51,4.27,1.64,8.71.72,13.15-2,2.14-2.1-.49-3.44-1.55.7,1.71,2.08,2.28,2.64,3.44,1,6.64-.39,12.95-2.62,19.14"/><path class="cls-6" d="M37.83,115.14a40.1,40.1,0,0,1-1.38,5.06,3.29,3.29,0,0,1-5.53,1,14.14,14.14,0,0,1-2.29-4.11c-4.77-12.17-9.46-24.37-14.2-36.55a72.86,72.86,0,0,0-3-7,5.93,5.93,0,0,1,.18-5.92C13,64.92,15,64.46,17.5,66a9.49,9.49,0,0,1,4,5.16C26,83.63,30.66,96,35.3,108.4c.55,1.49,1.25,2.93,1.83,4.41.28.73.45,1.51.7,2.33"/><path class="cls-7" d="M74.91,107c-8.47.54-18.17.44-22.15-.3,1.42-1.89,3.23-3.16,4.73-4.7s3.19-3.15,4.76-4.74,3.12-3.21,4.65-4.84,2.84-3,4.24-4.57,3-3.29,4.53-5,3-3.32,4.66-5.21a16.56,16.56,0,0,1,1.78,2.24c2,3.73,2.65,7.83,3.19,12a41.36,41.36,0,0,0,.9,4.67c.26,1.05.54,1,2,0,1.41,3.63.1,6-3.37,7.47-3.22,1.37-6.71,1.77-10,3"/><path class="cls-8" d="M55.25,328.5,75.63,324c.31-.07.64-.07.94-.17l9-3.2c1.33-2.95,1.47-6.14,1.8-9.29.78-7.61,1.56-15.22,2.18-22.84.24-2.84,0-5.72,0-8.58,0-1.59,0-3.19.11-4.77a2.8,2.8,0,0,1,.95-1.57,1.58,1.58,0,0,1,1.3-.28,1.39,1.39,0,0,1,.84.93,24.8,24.8,0,0,1,.1,3.34q-.39,11-.82,22c-.21,5.41-.51,10.83-.66,16.25a53.3,53.3,0,0,0,.27,6.68,2,2,0,0,1-1.32,2.22,37.63,37.63,0,0,1-10.6,2.78,110.48,110.48,0,0,1-21.95,1.34c-.63,0-1.26-.15-2.54-.32"/><path class="cls-9" d="M81.22,220.89c3.35,1.92,4.83,4.91,5.72,8.13a147.73,147.73,0,0,1,5.7,37.26c0,.48,0,1,0,1.43a1.47,1.47,0,0,1-1.4,1.61c-6,.68-11.75,2.85-17.86,2.75-5.75-.09-11.49-.09-17.24-.15a2.61,2.61,0,0,1-1.62-.53c2.18-.26,4.35-.56,6.53-.77a69.18,69.18,0,0,0,14.4-3.39c3.64-1.17,7.28-2.34,10.93-3.45a2.24,2.24,0,0,0,1.84-2.41c-.07-3.82.08-7.66-.22-11.47-.35-4.45-1-8.88-1.69-13.29A49.68,49.68,0,0,0,82.1,223c-.33-.68-.59-1.38-.88-2.06"/><path class="cls-10" d="M70.88,198.24a12.22,12.22,0,0,1-8.73,3.2c-4.68.06-7.81-2.1-9.56-6.52a12.14,12.14,0,0,1,.14-9.76c1.6-3.57,3.89-6.52,7.64-8.08,9.05,1.72,12.71,7.14,10.66,16a14.69,14.69,0,0,0-.15,5.2"/><path class="cls-11" d="M116.07,13.61c-1.1,2-1.65,3.47-2.64,4.59a5.92,5.92,0,0,1-2.9,1.35c-3.86,1-7.81,1.61-11.62,2.73A124.17,124.17,0,0,0,63.22,39.19c-1.29.89-2.61,1.73-4.13,2.73-.69-1.58-1.23-2.86-1.91-4.43C75.53,26.75,95,19.18,116.07,13.61"/><path class="cls-12" d="M61.57,366.27a18.13,18.13,0,0,1,2-8.67c.46.2.83.25,1,.47,3.16,3.62,7.32,5.6,11.74,7.13a44.5,44.5,0,0,0,4.63,1.08c.85.19,2.14-.45,2.38.82.11.55-.62,1.41-1.18,1.9-1.54,1.34-3.19,2.56-4.8,3.82a4.58,4.58,0,0,0-.89.35c-9.15,5-12.9,3.3-14.86-6.9"/><path class="cls-13" d="M74.91,107a4.13,4.13,0,0,1,2.58-1.87c2.68-.83,5.32-1.82,8-2.7a2.29,2.29,0,0,0,1.84-1.86c.23-1.36.61-2.7.92-4,1.78-8.15-.4-15.45-5-22.4l3.31-4.2a10.38,10.38,0,0,1,2.83,4.48,35.75,35.75,0,0,1,2.72,11.12,80.17,80.17,0,0,1-.69,20c-.28,1.66-.38,1.75-2.15,1.82-4.77.2-9.55.42-14.3-.39"/><path class="cls-14" d="M66.21,70.49c-3-2.42-4.36-5.26-5.59-8.1-1.85-4.23-3.46-8.56-5.14-12.86-1.35-3.48-2.63-4.28-6.14-3a25.13,25.13,0,0,0-6.77,3.44c-4.31,3.27-8.4,6.83-12.5,10.37-1.93,1.66-3.66,3.55-5.52,5.3-.15.14-.61.09-.85,0a.73.73,0,0,1-.11-.7,61.16,61.16,0,0,1,4.78-5.94c7.45-7.51,16-13.64,25-19.2,1.17-.73,1.74-.55,2.18.64Q60.6,54.29,65.66,68.2c.21.56.28,1.16.55,2.29"/><path class="cls-15" d="M69.07,149.26c.22-.4.64-.8.65-1.2.13-4.22.2-8.44.29-12.66.28-5.57.57-11.14.84-16.71.07-1.43.07-2.87.13-4.3,0-.82.17-1.67,1.26-1.55s.94,1,1,1.81c0,.16,0,.32,0,.48q0,26.06,0,52.11c0,3.5,0,4-3.73,2.82l-1.06-.26-1.17-.23c.13-1.88.17-3.78.41-5.66.63-4.89,1.86-9.72,1.38-14.71Z"/><path class="cls-16" d="M70.88,198.24c-1-.23-1.89-.68-1.73-1.87a13.78,13.78,0,0,1,.9-4.12c2.92-6.16-1.87-10.9-6.09-13.09-1.23-.65-2.8-.67-3.59-2.08,2.57-2,5.55-2.26,8.59-1.77,4.6.74,7,2.78,7.69,7.77.87,6-.57,11.36-5.77,15.16"/><path class="cls-17" d="M41,323.42a122.23,122.23,0,0,0,2-17.63c.67-9.89,1.37-19.77.67-29.69a5.51,5.51,0,0,1,.24-1.85c.06-.21.48-.34.75-.45.08,0,.31.12.35.23a7.4,7.4,0,0,1,.71,2.21c0,2.71.07,5.44-.11,8.15-.9,12.93-.6,25.87-.26,38.82a23,23,0,0,1,0,2.87,1.27,1.27,0,0,1-1,.78A23,23,0,0,1,34.25,323c-1.18-.78-.78-2-.47-3a1.17,1.17,0,0,1,1-.48c1.37.8,2.68,1.72,4,2.6.52.34,1,.65,2.15,1.34"/><path class="cls-18" d="M42.94,266.38c1.48-4.42,1.51-8.76,2.06-13A260.91,260.91,0,0,1,49.49,227c.15-.62.26-1.25.43-1.86.57-2.08.7-2.13,3.59-1.45a110.21,110.21,0,0,0-4.84,17.46A151.64,151.64,0,0,0,46,266.31c0,1,0,1.92-.07,2.87-.08,1.15-.68,1.56-2,1.2-2-.56-4-1.18-5.92-1.86-2.4-.84-2.5-1.06-2.3-3.4.22-2.71.69-2.91,3.14-1.36l4.13,2.62"/><path class="cls-16" d="M62.79,211.2c-2.06-.15-4-.19-5.86-.45a19,19,0,0,1-4.13-1.07c-2.19-.85-2.49-2.12-1.14-4.06a1.65,1.65,0,0,1,2.38-.71c7.3,3.51,13.88,2,20-2.91.6-.48,1.16-1.24,2-.73,1.33.77,2.62,4.13,2,5.51a3.2,3.2,0,0,1-1.54,1.69,48.84,48.84,0,0,1-7.25,2.21,52.32,52.32,0,0,1-6.51.52"/><path class="cls-19" d="M60.6,219.4c-2.24,0-4.48.12-6.7,0a16.7,16.7,0,0,1-4.16-1A4.64,4.64,0,0,1,47.88,217a2.05,2.05,0,0,1-.16-2.64,1.76,1.76,0,0,1,2.44-.75,31,31,0,0,0,13.14,2c5.94-.13,11.83-.43,16.8-4.34.45-.35,1.11.29,1.27,1a2.93,2.93,0,0,1-.77,2.65,7.49,7.49,0,0,1-4.39,2.72c-3.28.64-6.56,1.26-9.88,1.68a45.61,45.61,0,0,1-5.73,0v.08"/><path class="cls-20" d="M69.78,357.7c.94.13,1.86.28,2.8.38a20.26,20.26,0,0,0,3.78.33c4.39-.35,5.25-1.24,5-5.61a59.8,59.8,0,0,0-1.09-8.52c-.7-3.59-1.67-7.13-2.53-10.69a14.46,14.46,0,0,1,2.22-.81,14.69,14.69,0,0,1,2.51,0c.2,1.94.42,3.82.57,5.71.59,7.48,1.18,15,1.72,22.43.15,2.13-.29,2.51-2.48,2.18a24.36,24.36,0,0,1-12.54-5.37"/><path class="cls-21" d="M49,374.43l9-12.52c1.09.19.71,1,.63,1.48a44,44,0,0,0-.08,15.68,1.35,1.35,0,0,1-.39,1.18,1.52,1.52,0,0,1-1.32-.16c-2.59-1.83-5.14-3.72-7.8-5.66"/><path class="cls-22" d="M61.57,366.27c.72,1.57,1.39,3.18,2.18,4.72,2,3.91,4.43,4.91,8.65,3.57,1.66-.52,3.28-1.15,4.92-1.74l-2.85,2.36-.11.11c-1.94,1.39-3.82,2.87-5.84,4.12a18.6,18.6,0,0,1-4.31,1.88c-1.64.5-2.24,0-2.54-1.8-.7-4.4-1.34-8.81-.1-13.22"/><path class="cls-23" d="M33.37,370.22c-1.61-1.2-1.85-3-1.72-4.73.19-2.69.62-5.36,1-8.57a69.89,69.89,0,0,0,5.18,4.7,64.45,64.45,0,0,0,5.73,3.4c-1.89,4.16-5.23,5.86-10.2,5.2"/><path class="cls-24" d="M81.67,250.69c-.11.83-.15,1.3-.24,1.76A2.07,2.07,0,0,1,79.32,254a1.73,1.73,0,0,1-1.71-1.4,21.83,21.83,0,0,1-.56-5.19c.45-6.21-1.28-11.92-3.64-17.53a5.64,5.64,0,0,1-.24-1.8c0-.11.19-.28.32-.33.28-.08.68-.24.85-.11a2.76,2.76,0,0,1,.93,1.05,46.21,46.21,0,0,1,2.42,5.67c1.19,4,2.19,8,3.2,12,.38,1.54.57,3.12.78,4.35"/><path class="cls-25" d="M89.78,152.62A10,10,0,0,1,90.94,160c-.39,2-.63,4.08-.86,6.13a14.46,14.46,0,0,0,1,7.94,9.47,9.47,0,0,1-.13,7.88c-.15.34-.65.54-1,.8-.25-.34-.65-.65-.72-1a48.88,48.88,0,0,1-1.08-6.55c-.24-4.45-.25-8.92-.34-13.38,0-3,1.09-5.79,1.93-9.13"/><path class="cls-26" d="M51.86,260.28a6.49,6.49,0,0,1,1.89-4.5,2.75,2.75,0,0,1,3-.75c.74.25,1.49.5,2.21.81a5.07,5.07,0,0,1,3.27,5.62,5.73,5.73,0,0,1-4.93,4.45c-2.17.18-4.1-1.19-5-3.6a15.11,15.11,0,0,1-.48-2"/><path class="cls-22" d="M40.36,359.3c.53-.27,1-.75,1.58-.78a23.45,23.45,0,0,0,11.84-4.16,21.79,21.79,0,0,1,3.27-1.82,4.63,4.63,0,0,1,1.74,0c-2.18,2.68-4.43,5.32-6.53,8.07a4.16,4.16,0,0,1-4.09,1.72,15.5,15.5,0,0,1-7.81-3"/><path class="cls-27" d="M87,148.69c-.49,2.08-1,4.24-1.5,6.39-.66,2.65-.68,2.65-3.48,2.69-3.85,0-4.17-.33-3.46-4,1.17-6,1.77-6.42,7.88-5.47.14,0,.26.17.56.39"/><path class="cls-28" d="M61.5,284.92c0,2.24-1.39,3.89-3.51,5a4.56,4.56,0,0,1-5.65-.93,4.49,4.49,0,0,1-.16-5.73,14.37,14.37,0,0,1,4.11-3.13,3.5,3.5,0,0,1,2.69.28c1.73.81,2.51,2.35,2.52,4.53"/><path class="cls-9" d="M83.26,174.13H78.13c-.34-1.91.18-3.77.14-5.6a52.15,52.15,0,0,1,.18-5.73c0-.37.78-.91,1.26-1a8,8,0,0,1,2.85.09,1.73,1.73,0,0,1,1.08,1.2c.06,3,0,6.06,0,9.08a13.13,13.13,0,0,1-.33,1.94"/><path class="cls-29" d="M79.59,177.54a15.27,15.27,0,0,1,3-.21,1.89,1.89,0,0,1,1.35,1c1,4,2,8,3,12.19H80.77a21,21,0,0,0-1.18-13"/><path class="cls-30" d="M33.37,370.22c3.8-1,7.5-2.1,10.2-5.2l4.25.35c-2,7.72-9.27,9.34-14.45,4.85"/><path class="cls-31" d="M71.65,54.51a3.17,3.17,0,0,1-3.47-3,3.69,3.69,0,0,1,3.56-3.66A3.49,3.49,0,0,1,75.21,51c.12,2-1.35,3.43-3.56,3.54"/><path class="cls-17" d="M53.1,62.31a3.38,3.38,0,0,1-3.3,3.37,3.23,3.23,0,0,1-2.91-3.21,3.18,3.18,0,0,1,3.31-3.3,3,3,0,0,1,2.9,3.14"/><path class="cls-32" d="M93.12,164.93c.08-1.24.06-2.49.26-3.71A1.44,1.44,0,0,1,95.1,160a3.12,3.12,0,0,1,1.92.92,7.93,7.93,0,0,1,.82,5.46c-2.29,1.85-3.42-.06-4.72-1.45"/><path class="cls-33" d="M93.12,164.93a8.55,8.55,0,0,0,4.72,1.45,27.44,27.44,0,0,1,0,3.27,2.66,2.66,0,0,1-2.14,2.24c-.67.2-1.3.15-1.57-.54a11.53,11.53,0,0,1-1-6.42"/><path class="cls-34" d="M72.24,241.69a15.69,15.69,0,0,1-.59,1.83,2,2,0,0,1-2.5.76,3.67,3.67,0,0,1-1.5-4.54,2.64,2.64,0,0,1,1.81-1.23,2.8,2.8,0,0,1,2,1,7,7,0,0,1,.8,2.22"/><path class="cls-5" d="M68.48,169.8l1.07.26-1.07-.26"/><polygon class="cls-12" points="74.36 375.29 74.29 375.11 74.47 375.18 74.54 375.36 74.36 375.29"/><path class="cls-35" d="M69.1,149.2c-1.06.05-2.28.6-3-.56a4.47,4.47,0,0,1-.68-2.16,2.11,2.11,0,0,1,2.07-2.14,1.89,1.89,0,0,1,2,2.12,24.09,24.09,0,0,1-.36,2.8l0-.06"/><path class="cls-36" d="M82.47,90.73a5.9,5.9,0,0,1-.06,1.1l-1.33,2.91c-1.46-.18-1.53-1.43-1.79-2.44a38,38,0,0,1-1-5,2,2,0,0,1,.84-1.48,1.3,1.3,0,0,1,2,.66,43.75,43.75,0,0,1,1.41,4.3"/><path class="cls-37" d="M57.55,188.37c0-1.79,1.27-4.09,3.56-5.79a4.42,4.42,0,0,1,2.19-.68A1.8,1.8,0,0,1,65,184.52c-.5.8-1.26,1.43-1.72,2.25a7.7,7.7,0,0,0-.93,2.61,2.09,2.09,0,0,0,1.19,2.36c.86.38,1.78.64,2.64,1a1.3,1.3,0,0,1,.15,2.29,4.55,4.55,0,0,1-6.42-.08c-1.59-1.47-2.36-3.33-2.33-6.61"/><path class="cls-38" d="M56.34,258.8a2.67,2.67,0,0,1,2.73,2.62,2.46,2.46,0,0,1-2.55,2.27,2.42,2.42,0,0,1-2.68-2.55,2.59,2.59,0,0,1,2.5-2.34"/><path class="cls-39" d="M56.27,282.81a2.62,2.62,0,0,1,2.81,2.52,2.54,2.54,0,0,1-2.26,2.07c-1.55.11-3-1-3.09-2.27a2.59,2.59,0,0,1,2.54-2.32"/></g></svg>