<svg id="Layer_1" data-name="Layer 1" xmlns="http://www.w3.org/2000/svg" viewBox="0 0 1920 1080"><defs><style>.cls-1{fill:#010101;}.cls-2{fill:#020202;}.cls-3{fill:#040404;}.cls-4{fill:#050505;}.cls-5{fill:#fcfcfc;}.cls-6{fill:#f0f0f0;}</style></defs><title>simpleshow_logo</title><path d="M669.14,592.36c-8.89,4.36-18.29,3.29-27.46,3.42-14.1.19-14.28,0-14.41-14.13-.3-33.54-.33-67.08-.69-100.62a89.37,89.37,0,0,0-1.92-19c-1.79-7.8-8.91-10.84-16.77-7.87-3.35,1.26-6.56,3.08-6.69,7.36q-.24,7.48-.2,15,.24,48.17.53,96.33c0,5,0,10-.08,15-.08,4.15-2.57,6.37-6.39,7.25a29.81,29.81,0,0,1-6.31,1c-35.5.08-30,5.74-30.5-27.73-.47-29.26-.38-58.52-.76-87.77a109.77,109.77,0,0,0-1.78-19.08c-1.23-6.47-6.37-9.54-12.62-8.63-6.66,1-10.94,4.76-11.07,10.66-.22,10-.06,20,0,30,.19,30,.49,59.95.53,89.92,0,10.3-2,12.41-12.28,13-7.82.46-15.68.22-23.53.4-5.62.13-7.37-3.26-7.43-8.06-.17-14.28-.2-28.55-.38-42.82-.4-33.53-.93-67.07-1.24-100.61-.14-14.42.33-15.55,14.4-19.06,24.34-6.08,48.76-10.63,73.49-.57,4,1.62,9.77.1,14.33-1.29,16.69-5.08,33.41-6.56,50.69-3.46,14.21,2.55,23.46,9.86,26.27,24.27,1.23,6.28,2.66,12.64,2.73,19,.49,40.66.64,81.34.81,122,0,2.06-.83,4.12-1.27,6.2"/><path class="cls-1" d="M1529.3,523.43q7.13-43.23,14.28-86.46c2.27-13.62,3.35-14.85,15.88-14.93,7.73,0,15.46.91,23.2,1.41,1.93,7.43,4.36,14.77,5.71,22.3,4.42,24.54,8.45,49.15,13,76,2.29-3.81,4.6-6,5-8.56,3.56-24,6.77-48,10.1-72,.48-3.53.87-7.08,1.6-10.57,1.82-8.58,4-10.62,12.67-11.65a64.22,64.22,0,0,1,8.54-.45c25.69.33,27.92-4.7,21.08,24.27-9.49,40.2-17.91,80.66-26.83,121-1.54,7-3.41,13.83-4.94,20.79-1.46,6.64-5.6,9.39-12.19,9.42-5.7,0-11.41.77-17.09.59-16-.52-21.72-4.76-25.69-20.28-3.88-15.15-7-30.52-10.94-48.13-3.83,18.2-7.2,34.3-10.62,50.38-.73,3.48-1.52,7-2.47,10.38-1,3.71-3.27,6.21-7.41,6.37-9.26.35-18.52.81-27.78,1S1500,589,1497,581.07a111.42,111.42,0,0,1-4.09-14.39q-15-66.72-29.83-133.48c-.46-2.07-1.23-4.43-.68-6.3.71-2.39,2.5-6.22,4-6.34,13.41-1,26.88-1.64,40.31-1.43,1.89,0,4.8,5,5.36,8,2.31,12.61,4,25.34,5.74,38.05,1.92,14.12,3.47,28.29,5.45,42.41.78,5.5,2.3,10.89,3.48,16.33l2.52-.49"/><path d="M742.82,596.48c0,17.41.08,33.73,0,50-.09,14.72-.31,15.08-15.5,16.21a106.12,106.12,0,0,1-19.11-.42c-4.63-.49-7.63-3.82-8.16-8.56a126.85,126.85,0,0,1-.52-12.79q-1-96.16-1.93-192.31c-.17-18-.1-18,17.2-23.85,16.37-5.57,33.17-8.28,50.44-6.7,28.73,2.62,45.65,18,50.45,46.4,5.42,32.11,2.61,63.93-5.71,95.19-2.15,8.08-6.33,15.92-11,23-9.5,14.5-23.39,20.21-40.59,17.21-4.81-.85-9.56-2.07-15.6-3.39"/><path d="M1231,422.06c6.55-2.11,11.89-3.57,17-5.54,9.61-3.68,19.56-3.81,29.53-3,11.8,1,20.27,6.68,23,18.72,1.59,6.89,3.21,14,3.28,21,.43,42.75.49,85.51.48,128.27,0,8.3-2.09,10.58-9.67,10.87-10,.39-20,.43-29.91-.06-1.91-.1-4.87-3.14-5.26-5.21-.9-4.83-.65-9.91-.64-14.88,0-29.22.26-58.44.12-87.66a212.2,212.2,0,0,0-1.83-25.55c-1-7.63-5.75-10.64-13.64-9.54-2.11.29-4.15,1-6.23,1.52-3.86.95-6.12,3.23-6.17,7.37-.06,5-.18,10-.19,15q-.09,48.12-.15,96.22c0,5,.11,10-.21,15-.25,4-2.73,6.92-6.63,7.12-10.65.57-21.34.87-32,.58-1.73-.05-4.46-3.47-4.82-5.64-.79-4.87-.46-9.93-.45-14.91q.18-103.69.4-207.39c0-20.87-3.14-28.3,27.75-28.21,2.14,0,4.28-.07,6.42,0,9.11.23,9.65.56,9.73,9.88.16,17.81,0,35.63,0,53.45v22.7"/><path class="cls-1" d="M958.11,529c1,29.58,7.54,34.43,34.47,30.6,10.38-1.47,20.58-4.2,32.35-6.68,1.22,8.72,2.73,17,3.43,25.41.58,7-1.84,10.43-8.78,12.84-22,7.62-44.76,8.91-67.51,5-13.27-2.3-23.4-10.57-29.12-23-3.24-7.06-6.38-14.56-7.45-22.16-4.08-29.09-4.87-58.25,2.43-87.05a94.45,94.45,0,0,1,6.63-18c6.94-14.33,18.47-24.13,34-26.85a122.11,122.11,0,0,1,36.06-.82c13.39,1.7,23.34,10.32,29.06,22.77,2.36,5.12,4.5,10.69,5.11,16.23,2,18.47,2.21,37-1.6,55.34-2,9.73-2.87,10.54-12.4,11.52-14.18,1.45-28.4,2.54-42.6,3.76-4.18.36-8.37.63-14,1"/><path class="cls-1" d="M1114.12,411.72c12.73,2,24.86,3.08,36.52,6,18.11,4.53,16.16,20.39,7.5,31.89-1.21,1.61-5.45,2.44-7.54,1.65-10.26-3.88-20.82-4.83-31.57-4.29a37.07,37.07,0,0,0-10.31,2.23c-3.53,1.24-6.32,7.81-4.36,10.81a106.38,106.38,0,0,0,11.55,15.2c10.76,11.41,22,22.39,32.93,33.64,11.08,11.41,15.47,25.13,14.64,41-.85,16.33-8.2,28.46-21.81,37a47.05,47.05,0,0,1-9.52,4.82,109.13,109.13,0,0,1-65.25,2.19c-15.11-4.1-18.27-10.24-14.35-25.3.72-2.74,1.46-5.78,3.17-7.87,1.52-1.84,4.55-3.77,6.66-3.52,4.89.59,9.56,2.93,14.45,3.71,6.3,1,12.77,1.89,19.09,1.52,14.28-.85,20.24-10.41,14.64-23.78-2.13-5.08-6.07-9.59-9.91-13.69-9.75-10.42-20.39-20-29.72-30.78-6.45-7.44-12.69-15.65-16.58-24.57-10-22.89.54-45.34,24.54-52.29,11.46-3.33,23.74-3.86,35.23-5.6"/><path class="cls-2" d="M1401.45,472.36c1.37-7,3-13.88,3.89-20.9.18-1.32-2-3.78-3.51-4.3a6.55,6.55,0,0,0-5.48,1.3c-1.44,1.28-2.18,3.59-2.75,5.59-3.51,12.22-6.9,24.49-11,39-3-7.12-1.73-12.27-1.07-17.27.83-6.34,2.48-12.61,2.87-19,.14-2.19-2-5-3.87-6.7s-6.51,1.54-7.15,5.38c-2.23,13.34-4.3,26.69-6.42,40-5.37.31-6.34-2.91-6.15-6.72.29-5.68,1.34-11.36,1.12-17-.08-2.1-2.82-4.11-4.35-6.15-1.89,1.81-4.92,3.35-5.42,5.49a47.8,47.8,0,0,0-1.23,14.83c1.91,22.24-4.83,43.81-4.79,65.9,0,4.78-2.3,9.63-4,14.29-.63,1.74-2.26,3.9-3.87,4.37-4.07,1.18-4.26-2.72-4.91-5.12-9.5-35.07-11.18-70.52-1.29-105.57,11.26-39.9,49.6-57.53,88-41.85a40.93,40.93,0,0,1,21.77,19.6c2.25,4.43,4.67,9,5.84,13.73,8.41,34.56,9,69.34-.6,103.63-8.62,30.75-27.91,44.1-60,43.89a140.7,140.7,0,0,1-14.91-1.12c-3.29-.37-5.29-2.76-4.29-5.82,4-12.36,9-24.5,21.92-30.1,19.48-8.44,31.82-26.09,49.17-37.23.79-.5,1.36-2.89.87-3.57-1.13-1.59-3.18-3.93-4.5-3.72a64.26,64.26,0,0,0-13.94,3.81c-5.06,2-9.16,10.59-14.23,7.07-6.91-4.79-1.54-13.14.29-19.25,3.45-11.55,8.76-22.54,13.06-33.85a54,54,0,0,0,3.15-12.21c.19-1.53-1.49-4.28-2.92-4.79s-4.68.53-5.34,1.81c-3.55,6.93-6.55,14.15-9.74,21.28-8.22.43-5-4.76-4.29-8.73"/><path class="cls-1" d="M342,420.28c12.72,1.92,24.91,2.73,36.52,5.78,14.81,3.88,18.38,21,7.14,31.8-1.52,1.46-5.21,1.22-7.8.93-9.84-1.11-19.63-2.85-29.48-3.75-3.41-.31-7.09.81-10.45,1.87-3.88,1.23-6.57,7.3-4.48,10.74a77.87,77.87,0,0,0,10.07,13.62c10.89,11.3,22.2,22.19,33.29,33.31,11.8,11.82,16.73,26,15.5,42.74-1,13.76-7,24.46-17.86,32.6C366.32,596,357,600.29,347,601c-14.16,1-28.46.7-42.67.16-4.79-.18-9.68-2.35-14.18-4.38-5.79-2.62-8.31-7.68-7.53-14a95.9,95.9,0,0,1,2.46-12.59c1.59-6,5-8.15,11.14-6a73.31,73.31,0,0,0,31.62,3.7c12.2-1.05,17.52-9.4,12.95-21.09a46.06,46.06,0,0,0-9.32-14c-10.24-10.93-21.06-21.33-31.53-32-7-7.19-13-15-16.48-24.7-7.8-22,1.24-42.74,23.35-49.67,11.39-3.57,23.68-4.23,35.19-6.15"/><path class="cls-3" d="M887.85,467V569.41c0,5,.08,10,0,14.94s-2.43,8.07-7.47,8.69a67.15,67.15,0,0,1-8.51.51c-32.3-.15-27,5.28-27.49-26-.94-60.46-1.48-120.92-2.19-181.39,0-4.26,0-8.54-.11-12.8-.58-26.74-1.17-30.21,31.48-31.7.71,0,1.43,0,2.13,0,7.15,0,9.27,1.7,9.74,8,.27,3.55.2,7.11.21,10.67q0,53.36,0,106.7Z"/><path class="cls-3" d="M459.67,510.71c0,24.23.1,48.46-.05,72.69-.06,10.67-2,13.3-11.91,13.35-38.07.21-32.13,6.78-32.87-29.71-.74-37-.76-74.12-1.07-111.18,0-5-.26-10,.18-14.95.74-8.54,4.65-12.94,13.3-14.11a159.58,159.58,0,0,1,21.32-1c8.27,0,9.74,1.36,9.8,10.11.2,24.94.07,49.88.07,74.83Z"/><path class="cls-4" d="M457.55,365.94c-.47,4.35-.55,8.68-1.47,12.82-3.11,13.87-16,21.25-29.49,16.36a19,19,0,0,1-9.31-8.06c-5.42-9.85-5.33-20.42-1.76-31,4.42-13.15,21.57-17.93,34.06-11,2.76,1.54,5,5.16,6.06,8.3,1.38,3.94,1.34,8.39,1.91,12.57"/><path class="cls-5" d="M770.2,503.78c-1.77,15.52-3.28,31.07-5.45,46.52-.57,4-2.69,8.09-5,11.5a9,9,0,0,1-11.33,3.28c-3.36-1.39-5.9-3.9-5.95-8-.05-5-.2-10-.23-14.95-.19-26.36-.45-52.72-.46-79.09,0-6.88,2.61-10.13,7.6-11.14,7.38-1.51,13.42,1,15.79,7.4a49.81,49.81,0,0,1,3.16,14.47c.47,9.94.14,19.93.14,29.9l1.76.14"/><path class="cls-6" d="M987.84,477.33c-.31,4.75-.25,8.35-.88,11.83-.35,1.87-1.45,4.33-3,5.16-7.12,3.88-15,4.5-22.81,3.18-1.41-.23-3.57-3.11-3.41-4.53,1.34-11.23,2.59-22.53,5.06-33.55,1.44-6.38,7-9.27,12.93-9s9.84,4,10.87,11.09c.81,5.62.88,11.34,1.2,15.85"/></svg>