<svg id="Layer_1" data-name="Layer 1" xmlns="http://www.w3.org/2000/svg" xmlns:xlink="http://www.w3.org/1999/xlink" viewBox="0 0 128.25 393.35"><defs><style>.cls-1{fill:none;}.cls-2{clip-path:url(#clip-path);}.cls-3{fill:#fff;}.cls-4{fill:#fd9800;}.cls-5{fill:#fefefe;}.cls-6{fill:#ccc;}.cls-7{fill:#cbcccc;}.cls-8{fill:#f8fafa;}.cls-9{fill:#fb9701;}.cls-10{fill:#f4f4f3;}.cls-11{fill:#f7f8f8;}.cls-12{fill:#f2f3f3;}.cls-13{fill:#f5f6f6;}.cls-14{fill:#eff0f0;}.cls-15{fill:#fbfbfb;}.cls-16{fill:#f5f8f8;}.cls-17{fill:#f6f8f8;}.cls-18{fill:#f4f9f9;}.cls-19{fill:#fafbfb;}.cls-20{fill:#eaebeb;}.cls-21{fill:#dd8500;}.cls-22{fill:#f9fdfd;}.cls-23{fill:#eff3f3;}.cls-24{fill:#dfe7e7;}.cls-25{fill:#f2f0eb;}.cls-26{fill:#e5e7e7;}.cls-27{fill:#f59000;}.cls-28{fill:#e2e6e6;}.cls-29{fill:#dfe2e2;}.cls-30{fill:#f1f0e5;}.cls-31{fill:#f5f0e4;}.cls-32{fill:#d0d0d0;}.cls-33{fill:#d3d9cb;}.cls-34{fill:#b8b7b7;}.cls-35{fill:#090805;}.cls-36{fill:#231400;}.cls-37{fill:#262424;}.cls-38{fill:#0b0909;}.cls-39{fill:#201d1d;}.cls-40{fill:#151111;}.cls-41{fill:#869b9b;}</style><clipPath id="clip-path"><rect class="cls-1" x="-1544.35" y="-270.76" width="1920" height="1080"/></clipPath></defs><title>simplemech arm 2</title><g class="cls-2"><path class="cls-3" d="M32.61,66.21c-3.28-4.65-6.7-9.27-9.87-14.06s-6-9.41-8.81-14.25c-3.45-5.93-6.72-12-10-18a46.48,46.48,0,0,1-2.69-6.13c-1.89-5.2,1.39-9.4,7-8.72A134.69,134.69,0,0,1,23.33,7.48,197.9,197.9,0,0,1,92,39.12c6.65,4.72,13,9.78,18.31,16.1a3.2,3.2,0,0,0,3,1.08,12.32,12.32,0,0,1,7.7,2.18c5.11,3.34,8,10.4,6.43,16.35-1,3.84-2.44,7.59-3.82,11.32-4.61,12.42-9.37,24.78-13.89,37.23-1.94,5.35-5.93,8.18-11,9.67-4.6,1.35-8.82.1-12.53-2.89-.57-.47-1.1-1-1.67-1.49-1,1.22-.62,2.36-.62,3.4,0,9.11,0,18.23-.07,27.33-.06,4.95-.37,9.89-.75,14.82a8.16,8.16,0,0,0,.91,4.56,52.12,52.12,0,0,1,2.81,6.57c1.6,4.58,1.07,9.15-.55,13.61a4.94,4.94,0,0,0,.23,4.53,20.88,20.88,0,0,1,1.34,4.07c.37,1.2.68,2.42,1.14,3.59.93,2.37,2.11,4.7,1.32,7.36a2.88,2.88,0,0,0,.76,2.64c4.78,6.58,7.47,14,9.1,21.93A232.74,232.74,0,0,1,104.3,273c.92,12.12,1.34,24.25,1.1,36.39-.11,5.42-.69,10.82-1,16.24a7.64,7.64,0,0,1-3.82,6.27,11,11,0,0,1-1.68.92,3.72,3.72,0,0,0-2.31,3.32c-.55,3.63-1.52,7.22-1.81,10.86-.51,6.29-4.74,9.42-9.84,11.09a53.41,53.41,0,0,1-24.17,2c-2.53-.35-5-1-7.5-1.54-5.58-1.28-9.39-4.53-11.18-10.05-1-3-2.15-6-3.06-9.07a5,5,0,0,0-3.22-3.79,15.47,15.47,0,0,1-3-1.55,9.83,9.83,0,0,1-4.58-7.49c-2.82-20.95-3.34-42-2.72-63.09a128.39,128.39,0,0,1,5.76-34.39c1.34-4.28,3-8.48,6-11.89a4.93,4.93,0,0,0,1.25-3.46,10.26,10.26,0,0,1,1.76-5.87c1.09-1.57,1.23-3.51,1.49-5.43-1.73-.46-3.26-.81-4.75-1.29a9.47,9.47,0,0,1-6.65-6.36,78.87,78.87,0,0,1-2.06-8.35c-.43-2.25-1.09-4.09-3.12-5.59-3.56-2.63-4.91-6.59-5.25-10.88a25.8,25.8,0,0,1,1.47-10.84,12,12,0,0,1,5.51-7,4,4,0,0,0,2.47-3.22,20.48,20.48,0,0,1,1.2-3.62c1.29-3.9,4.13-5.93,8-6.65a18.62,18.62,0,0,1,3.33-.34c3.64,0,3.52-.4,3.52-3.42,0-4.64,0-9.27,0-13.91,0-2.45-.2-2.55-2.8-2.66-2.07-.09-4.14-.22-6.2-.36a6.12,6.12,0,0,1-5.21-3.69,26.36,26.36,0,0,1-3.08-8c-.57-3.78-1.59-7.52-1.84-11.32-.65-10.07,1.09-19.7,6.26-28.7"/><path d="M79.29,144.68c-.29,9.1-.56,18.2-.91,27.3-.07,2.06-.86,4.2-.48,6.14.35,1.76,1.93,3.25,2.81,4.95a17.06,17.06,0,0,1,.58,15.69c-1.08,2.34-1.92,4.32.38,6.39a3.14,3.14,0,0,1,1,2.12c-.15,3,1.4,5.45,2.65,8a4.85,4.85,0,0,1-.2,4.17,2.35,2.35,0,0,0,.21,2.69c6.85,7.94,9.44,17.61,11.19,27.61,1.54,8.82,2.29,17.72,3.08,26.63a366.1,366.1,0,0,1,.88,36.88c0,4-.66,7.94-1,11.91a4,4,0,0,1-1.91,3.14,3.39,3.39,0,0,1-1.23.72c-3.69.56-4.07,3.37-4.51,6.28-.61,4.11-1.39,8.18-2,12.28a5.77,5.77,0,0,1-2.49,3.89,18.33,18.33,0,0,1-7.79,3.41,54.6,54.6,0,0,1-23.29-.22c-.93-.23-1.85-.5-2.76-.77a9.78,9.78,0,0,1-6.92-6.71c-1.26-3.79-2.65-7.53-3.84-11.34A5,5,0,0,0,39,332a12.65,12.65,0,0,1-3.79-2,4.89,4.89,0,0,1-2-3.62c-3.07-21.41-3.38-42.95-2.69-64.51a117.33,117.33,0,0,1,5.16-30.15c1.44-4.78,3.28-9.36,7.09-12.83a3,3,0,0,0,.86-3c-.37-2.13-.24-4.12,1.78-5.57a2.15,2.15,0,0,0,.71-1.59,11.62,11.62,0,0,1,3.67-9.5A1.41,1.41,0,0,0,50,198a1.34,1.34,0,0,0-1-.71c-2.24,0-4.47,0-6.71.09-5,.17-7.42-2.24-8.28-6.81-.61-3.29-1.3-6.57-1.92-9.87a2.1,2.1,0,0,0-1.31-1.81c-5.2-2.11-6.18-6.5-6-11.41a22.31,22.31,0,0,1,.77-5.2c.85-3,2.34-5.66,5.88-6.2,1.16-.18,1.53-.9,1.79-1.91.51-2,1.16-4,1.67-6,.79-3.13,3.06-4.36,6-4.57,2.39-.16,4.8,0,7.19-.08,2-.05,2.36-.39,2.37-2.17q.06-12.71,0-25.41c0-1.68-.53-2.16-2.4-2.19-2.71,0-5.44-.06-8.14.11s-4.13-.92-5.24-3.24c-2-4.27-2.79-8.84-3.32-13.42a47.89,47.89,0,0,1,1.32-18.06,30,30,0,0,1,4.93-10.83c1.2-1.55,1.16-1.64,0-3.3-2.42-3.38-4.84-6.76-7.33-10.09-6.35-8.47-11.33-17.77-16.49-27-2-3.48-3.88-7-5.73-10.53A31.31,31.31,0,0,1,6.16,13C5.33,10.67,5.8,10,8.09,10.27,13,11,18,11.37,22.74,12.6,51,19.87,76.66,32.4,99.07,51.22a92.69,92.69,0,0,1,9,9.27c1.07,1.18,1.91,2,3.62,1.42,3.45-1.11,6.37.09,8.57,2.73,2.47,2.94,3.68,6.37,2.4,10.25-1.05,3.18-2.21,6.32-3.38,9.46-4.51,12.13-9.14,24.21-13.48,36.39a13.71,13.71,0,0,1-6,7.12,8.76,8.76,0,0,1-13.15-6.26,17.43,17.43,0,0,1,.07-3.82c.16-1.73-.79-2.63-2.14-3.38a6.77,6.77,0,0,0-4.66-.4,1.39,1.39,0,0,0-.86,1,19.49,19.49,0,0,0-.1,2.86q0,13.43,0,26.85h.34"/><path class="cls-4" d="M59.07,114.09c4.46-.08,8.92-.19,13.38-.23,1.17,0,1.64.56,1.68,1.8,0,.64,0,1.28,0,1.91q.13,27.52.29,55c0,.61,0,1.23-.09,2.12a47.76,47.76,0,0,0-6.69-2.82,46.19,46.19,0,0,0-7.1-.8c2.12-2.64,1.77-5.49,1.12-8.6a80.29,80.29,0,0,1-2.15-18c3.51-6.37.55-13.1,1.07-19.64.18-2.32.35-4.82-2.06-6.39a3.57,3.57,0,0,1,.56-4.36"/><path class="cls-5" d="M91,116c.2-.56.44-1.32.72-2.06,5.17-13.72,10.41-27.42,15.46-41.18a10,10,0,0,1,5.46-6.24,2.83,2.83,0,0,1,3.12.41,6.3,6.3,0,0,1,1.86,7.29c-4,10.06-8.08,20.12-12.07,30.19-1.82,4.6-3.51,9.25-5.31,13.85a14.82,14.82,0,0,1-1.68,3.41c-1.92,2.62-5.31,2.19-6.41-.81A43,43,0,0,1,91,116"/><path class="cls-6" d="M40.92,94.45c1.14,1.07.62,3.2,2.5,3.86,1.24-1.43,1.14-3.22,1.38-4.92.6-4.25,1.2-8.5,1.86-12.75a10.28,10.28,0,0,1,.79-2.11,4,4,0,0,1,.64.07.87.87,0,0,1,.42.2,374.2,374.2,0,0,0,27.56,28.87c-.57,1.21-1.47.87-2.19.87-4.94,0-9.88-.22-14.81-.17-3.66,0-7.31.43-11,.52-3.18.07-6.37,0-9.55-.14-.2,0-.38-.43-.58-.67,1.46-1.49,3.47-1.07,5.45-1.3-4.43-4.32-5-7.3-2.51-12.33"/><path class="cls-7" d="M58.08,177.09c2-1.53,4.38-1.3,6.43-.68,5.6,1.7,9.88,5.09,12,10.82a12.28,12.28,0,0,1-1.54,11.42,8.94,8.94,0,0,1-8.25,4c-4.23-.18-8.11-1.54-10.73-5.24-.25-2.68-1.3-5.23-1.06-8,.48-5.69,2.71-10.08,8.52-12-1.86.66-3.68,1.34-5.33-.4"/><path class="cls-8" d="M59.81,64.75c1.17-4.46,2.47-8.89,3.46-13.39.62-2.79.8-5.67,1.15-8.52a3,3,0,0,0-1.56-3.18,177,177,0,0,0-19-10.95c-3.75-1.75-7.53-3.43-11.28-5.19a85.22,85.22,0,0,0-16.2-5.65c-1.1-.26-2.2-.5-2.8-1.61-.13-.25-.32-.66-.21-.82a1.14,1.14,0,0,1,.82-.32,2.53,2.53,0,0,1,.94.14c17.8,5.12,35.06,11.56,51.39,20.4,5.76,3.12,5,3.18,3.07,8.41-2.87,7.59-5.78,15.17-8.67,22.76-1.88.09-1.29-1.09-1.07-2.08"/><path class="cls-9" d="M55,343.62c.54.55,1.1,1.08,1.63,1.64.75.81,1.35.35,1.94-.2,2.76-2.58,1.14-6.67,3.26-9.47a20.42,20.42,0,0,1,2.33-.16c1.84.08,2.17.27,2.2,2.19a13.75,13.75,0,0,0,1.86,6.19c2.63,1.23,2.8-1.18,3.62-2.51,1.16-1.86.76-4.45,2.73-5.95a3.86,3.86,0,0,1,.87-.37c.84-.15,1.75-.13,1.62,1-.28,2.51-.62,5,.59,7.51a8.92,8.92,0,0,0,2.88-5.95c.34-2.61,1.57-4,4.17-4.31.46-.05.92-.19,1.69-.35a16.91,16.91,0,0,1-.13,2.34c-.69,3.75-1.45,7.49-2.14,11.24a2.17,2.17,0,0,1-1.79,1.95c-9,1.79-17.94,2.63-26.9-.06-.14,0-.24-.19-.37-.29-.44-1.48-1.37-3-.06-4.46"/><path class="cls-10" d="M60.58,144.4a125.78,125.78,0,0,0,4.07,25.77l-4.12.93-4.92,1c-.06-1.47-.16-2.83-.16-4.19q.07-22.15.16-44.3c0-2.54-.13-5.08-.14-7.62,0-2,.26-2.21,2.68-2.11a4.46,4.46,0,0,1,.92.24l.09,4.38a5.21,5.21,0,0,1,1.23,4c0,7.32.22,14.63.19,21.94"/><path class="cls-11" d="M63,273.1a79.76,79.76,0,0,1-22.84-1.94c-.93-.23-1.85-.51-2.77-.75a1.51,1.51,0,0,1-1.24-1.74c.32-5.1.43-10.23,1-15.3a156,156,0,0,1,4.56-22.52,18.42,18.42,0,0,1,5.06-9.07,2.1,2.1,0,0,1,1.69-.19c.23.06.5.86.4,1.22A29.73,29.73,0,0,1,47.71,226a123.9,123.9,0,0,0-6.81,26.87c-.5,3.31-.75,6.66-1.29,10a3.77,3.77,0,0,0,2.25,4.29,35.19,35.19,0,0,0,11.2,4.05c3.15.52,6.34.73,9.52,1.07.52.11.66.41.43.89"/><path class="cls-12" d="M36.23,274.47c5.9.4,5.24,1.12,4.42,5.28a93.23,93.23,0,0,0-1.14,28.53c.35,3.16.88,6.31,1.1,9.48a6,6,0,0,0,2.78,4.75c1.81,1.28,3.7,2.45,5.61,3.58,1.31.78,2.71,1.41,4,2.1-.19.4-.24.61-.29.61a36,36,0,0,1-14.36-3,1.93,1.93,0,0,1-1.26-2.25c.69-9.56-.35-19.09-.6-28.64-.14-5.73-.38-11.46-.53-17.19a32.84,32.84,0,0,1,.22-3.29"/><path class="cls-13" d="M84,301.93c-.27-5.77-.58-12.14-.86-18.52-.06-1.27,0-2.55,0-3.83,0-1.79.46-2.94,1-2.69,1.19.52,1.45,1.63,1.6,2.73.22,1.58.32,3.18.46,4.77,1,11.13,1.91,22.26,1.43,33.45a14.47,14.47,0,0,0,0,2.87,2.53,2.53,0,0,0,.93,1.51c1,.72,2.21,1.25,3.32,1.88.64.37.7,1.19.09,1.47A26.77,26.77,0,0,1,89,326.89c-6.8,2.24-5.62,2-5.41-3.76.25-6.86.31-13.72.47-21.2"/><path class="cls-14" d="M85.86,271.31c-2.17.09-2.75-.43-2.83-1.68-.28-4.29-.45-8.59-.82-12.87a118.85,118.85,0,0,0-5.52-28,11,11,0,0,1-.51-2.79,1.5,1.5,0,0,1,1.34-1.67c.47-.08.94-.19,1.41-.25a2.39,2.39,0,0,1,2.86,1.83,7.05,7.05,0,0,1,.18,1.89c-.48,11.38,1.31,22.55,3.26,33.7.27,1.54.1,3.51,1,4.5,1.14,1.24,2.92-.3,4.45-.45.95-.09,1.93-.36,2.35.9.49,1.52.13,2.46-1.37,3-2.23.81-4.5,1.5-5.8,1.93"/><path class="cls-15" d="M40.92,94.45c0,2,0,4.11-.12,6.15a4.49,4.49,0,0,0,2,4.05c.89.66,1.8,1.29,2.65,2a1,1,0,0,1,.25.83.83.83,0,0,1-.61.49c-2.37.07-4.74.1-7.12.13a9,9,0,0,1-.6-1.77,84.46,84.46,0,0,1-.53-20,38,38,0,0,1,3-11.48,39.85,39.85,0,0,1,2.06-3.62c2,1.22,2.65,2.4,1.86,4.5a45.66,45.66,0,0,0-2.85,18.71"/><path class="cls-16" d="M105.5,66.34l-3.9,8.36a35,35,0,0,1-1.09-3.86,22.16,22.16,0,0,0-6-11.74A56.08,56.08,0,0,0,78.41,46.53a44.47,44.47,0,0,1-4.5-2.68c-1-.65-.79-1.69-.39-2.59a1.29,1.29,0,0,1,1-.69,5.32,5.32,0,0,1,1.72.78,150.84,150.84,0,0,1,22.47,17,37.17,37.17,0,0,1,6.8,8"/><path class="cls-17" d="M66.83,212.5c-4.43-.21-8.1-.4-11.61-1.61a19.11,19.11,0,0,1-2.65-1.08c-2.09-1.09-2.48-2.05-1.65-4.27a13,13,0,0,1,1.6-2.89,1.29,1.29,0,0,1,1.22-.27,9,9,0,0,1,1.51,1.15c5.91,4.5,12.25,5.83,19.25,2.72a2.49,2.49,0,0,1,3.52,2.4,2,2,0,0,1-.85,1.55,11.62,11.62,0,0,1-3.51,1.44c-2.5.45-5,.65-6.83.86"/><path class="cls-18" d="M47.85,212.39c2.29,1,4.47,2.43,6.85,3,7.87,1.89,15.78,2.2,23.59-.5,1.68-.58,2.35-.4,2.83.63a2.53,2.53,0,0,1-.86,3.36,13,13,0,0,1-3.51,1.4,19.85,19.85,0,0,1-4.28.49,85.51,85.51,0,0,1-17.64-1.35,12.23,12.23,0,0,1-6-2.73,3.39,3.39,0,0,1-1-4.3"/><path class="cls-19" d="M58.08,177.09h6.07c-.53.66-.72,1.11-1.05,1.27-5.72,2.82-7.93,8.74-6.72,15.31a11.25,11.25,0,0,1,.5,2.28c0,.52-.6,1-.93,1.5-4.11-4-4.46-9-3.56-14.12.54-3,2.13-5.68,5.69-6.24"/><path class="cls-20" d="M47,259.62a6,6,0,0,1-1.33-5.3,108.41,108.41,0,0,1,4.85-19.44,21.32,21.32,0,0,1,2-3.79,1.34,1.34,0,0,1,1.29-.23,1.31,1.31,0,0,1,.55,1.13,11.14,11.14,0,0,1-.8,2.73c-2.37,5.12-3.32,10.6-4.29,16.09-.22,1.25-.4,2.52-.72,3.75-.38,1.52-.9,3-1.52,5.06"/><path class="cls-21" d="M38.44,184.39a11.26,11.26,0,0,1-.4-10.17c1.64-3.85,1-7.87.15-11.76a17.34,17.34,0,0,1-.07-7.1c.05-.24.3-.58.51-.61s.69.16.74.34c.74,2.75,1.73,5.43,1.6,8.39-.18,4.14-.22,8.3-.15,12.44a25.23,25.23,0,0,1-1.36,7.49c-.1.38-.65.64-1,1"/><path class="cls-13" d="M43.87,158.57l-2.1-8.83c6.67-1.28,7.18-1,8.47,5a10.86,10.86,0,0,1,.23,1.87,19.71,19.71,0,0,1-.11,2,16.28,16.28,0,0,1-6.49-.11"/><path class="cls-22" d="M50.44,162.91v12.26c-.85.06-1.93.2-3,.19-2,0-2.11-.14-2.18-2.19q-.12-4.06-.18-8.13c0-1.75.21-2,1.77-2.12,1.08,0,2.16,0,3.59,0"/><path class="cls-23" d="M41.83,192l2.93-12.18a1.61,1.61,0,0,1,1.67-1.38,9.28,9.28,0,0,1,2.27.37c.15,0,.32.6.23.81-1.58,3.63-1.49,7.42-1.14,11.24.07.77-.45,1.12-1.17,1.13-1.41,0-2.82,0-4.79,0"/><path class="cls-24" d="M77.16,285.43a5.59,5.59,0,0,1-5.28,5.18,4.36,4.36,0,0,1-4.2-4.8,5.26,5.26,0,0,1,4.9-5,4.73,4.73,0,0,1,4.58,4.58"/><path class="cls-25" d="M55,343.62c.11.91.29,1.82.33,2.74a8.66,8.66,0,0,1-.27,1.72c-1.32-.13-2.41-.49-2.89-2-1.12-3.45-2.36-6.86-3.52-10.29-.39-1.17.1-1.67,1.46-1.57.31,0,.62.09.94.1a2,2,0,0,1,2.21,1.92c.46,2.47,1.14,4.9,1.74,7.35"/><path class="cls-26" d="M68.75,264.43a5.88,5.88,0,0,1-.15-4.17A3.38,3.38,0,0,1,73,257.87a13.4,13.4,0,0,1,1.34.48c2.73,1,3.75,2.86,3,5.49A4.6,4.6,0,0,1,72,267.18a5.8,5.8,0,0,1-1.65-.86c-.1-1.95,2-1.62,2.75-2.75.6-1.39,0-2-1.36-2.09a1.6,1.6,0,0,0-1.08.88,13.1,13.1,0,0,1-.54,1.48c-.33.48-.71.84-1.35.59"/><path class="cls-27" d="M35.7,164.6c.71,2.55-.1,5-.74,7.37-.32,1.24-1.45,1.51-2.57.8a2.66,2.66,0,0,1-1.38-2.3c0-1.7.11-3.41.18-5.12,1.41-.84,2.8-1.78,4.51-.75"/><path class="cls-28" d="M75.21,59.94a3.35,3.35,0,0,1-3.07,3,3.4,3.4,0,0,1-3.21-3.38A3.56,3.56,0,0,1,72,56.5a3.52,3.52,0,0,1,3.21,3.44"/><path class="cls-29" d="M55.49,47a3.52,3.52,0,0,1,3.26,3.44,3.32,3.32,0,0,1-3.28,2.83,3.57,3.57,0,0,1-3-3.17A3.38,3.38,0,0,1,55.49,47"/><path class="cls-30" d="M74.6,335.35a20.39,20.39,0,0,1-2.55,8.16c-.74,1.19-1.76,1.91-3.21,1.38-.29-.11-.39-.71-.59-1.08.41-.14,1-.16,1.18-.44a14,14,0,0,0,1.87-5.81c.28-2.5.35-2.49,3.3-2.21"/><path class="cls-31" d="M61.86,335.59a35.28,35.28,0,0,1,0,4.24c-.25,2.21-.82,4.33-3.26,5.23a19.37,19.37,0,0,0-.4-8.05c-.39-1.52.11-2,1.81-1.86a11.28,11.28,0,0,1,1.85.44"/><path class="cls-32" d="M58.43,239.93c.52.66,1.34,1.23,1.35,1.81a11,11,0,0,1-.7,3.61c-.31.84-1,1.87-2.06,1.41a3.51,3.51,0,0,1-1.56-2.11,4.28,4.28,0,0,1,1.15-3.89c.34-.41,1.07-.51,1.82-.83"/><path class="cls-33" d="M35.7,164.6c-1.46.53-2.89,1.23-4.51.75a12.86,12.86,0,0,1,.26-2.8A2,2,0,0,1,33.61,161a2,2,0,0,1,2,1.7,9.76,9.76,0,0,1,.08,1.88"/><path class="cls-34" d="M59.81,64.75l1.07,2.08c-.78,2.39-1.52,4.8-2.36,7.17-.12.36-.67.57-1,.85-.19-.38-.53-.76-.53-1.14a5.64,5.64,0,0,1,.32-1.86c.81-2.37,1.68-4.73,2.52-7.1"/><path class="cls-11" d="M63,273.1c-.14-.3-.28-.59-.43-.89,1.27-.06,2.53-.17,3.8-.18,4.27,0,8.55.32,13-.09-.54.33-1.07.92-1.61.93-4.92.13-9.84.17-14.76.23"/><path class="cls-3" d="M68.75,264.43l1-1.16a5,5,0,0,1,4.5,1,2.12,2.12,0,0,1-2.18,1.13c-.77,0-1.45.07-1.78.9a2,2,0,0,1-1.58-1.89"/><path class="cls-35" d="M60.58,144.4c-.46-1.5-1.31-3-1.34-4.51-.15-7.14-.08-14.28-.08-21.42,2.12-.13,2.59.11,2.72,1.52.09,1,0,1.91.08,2.87.15,4.14.41,8.29.43,12.43a49.94,49.94,0,0,1-.61,7.12c-.1.71-.78,1.33-1.2,2"/><path class="cls-36" d="M63.26,123.33a11.21,11.21,0,0,1,.72-2.59,2,2,0,0,1,1.5-.89,2.07,2.07,0,0,1,1.51.86,5.33,5.33,0,0,1-.91,6.09,1,1,0,0,1-1.6-.26,31.89,31.89,0,0,1-1.22-3.21"/><path class="cls-37" d="M52.08,90.59c-.33,1.22-.28,2.8-1.8,3.52-.88.42-2-1.66-2-3.74,0-1.84,1.06-3.31,2.21-3s1.78,1.57,1.62,3.23"/><path class="cls-38" d="M71.39,190.24a8,8,0,0,1-2.2,5.72,4.74,4.74,0,0,1-6.06.74c-.66-.4-1.42-1-1.09-1.86.18-.49.83-.86,1.35-1.16s.93-.21,1.35-.42a2.91,2.91,0,0,0,1.47-4.3,27.51,27.51,0,0,0-2-2.63,2.08,2.08,0,0,1-.09-2.63,2.3,2.3,0,0,1,3-.37,9,9,0,0,1,4.25,6.91"/><path class="cls-39" d="M75.1,286.31a2.61,2.61,0,0,1-2.78,2.17,2.31,2.31,0,0,1-2.47-1.65,2.5,2.5,0,0,1,.42-1.72,2.78,2.78,0,0,1,4.42.09,3.62,3.62,0,0,1,.41,1.11"/><path class="cls-40" d="M74.29,264.29a4,4,0,0,1-4.5-1l0-1.61a1.56,1.56,0,0,1,.63-.88l.4-.25a2.53,2.53,0,0,1,3.46.32c1.09,1.12.81,2.29,0,3.44"/><path class="cls-41" d="M70.44,260.78c-.21.29-.43.58-.64.88l.64-.88"/></g></svg>