<svg id="Layer_1" data-name="Layer 1" xmlns="http://www.w3.org/2000/svg" xmlns:xlink="http://www.w3.org/1999/xlink" viewBox="0 0 130.93 394.89"><defs><style>.cls-1{fill:none;}.cls-2{clip-path:url(#clip-path);}.cls-3{fill:#fff;}.cls-4{fill:#f90;}.cls-5{fill:#ccc;}.cls-6{fill:#fe9801;}.cls-7{fill:#cbcccc;}.cls-8{fill:#fcfdfc;}.cls-9{fill:#fbfcfc;}.cls-10{fill:#fcfcfc;}.cls-11{fill:#fcfdfd;}.cls-12{fill:#f7f9f9;}.cls-13{fill:#fdfdfd;}.cls-14{fill:#fafafa;}.cls-15{fill:#cbc9c9;}.cls-16{fill:#b7baba;}.cls-17{fill:#f2f3f3;}.cls-18{fill:#e9e9e9;}.cls-19{fill:#fb9806;}.cls-20{fill:#f6f9f9;}.cls-21{fill:#f8f8f6;}.cls-22{fill:#dd8c0d;}.cls-23{fill:#ec910a;}.cls-24{fill:#ec951b;}.cls-25{fill:#f9fbfb;}.cls-26{fill:#ebeded;}.cls-27{fill:#fffbf5;}.cls-28{fill:#e2e6e5;}.cls-29{fill:#f49606;}.cls-30{fill:#f79909;}.cls-31{fill:#df8c0e;}.cls-32{fill:#e5e2e0;}.cls-33{fill:#ece9e1;}.cls-34{fill:#edebe6;}.cls-35{fill:#090909;}.cls-36{fill:#1d1717;}.cls-37{fill:#040302;}.cls-38{fill:#f9f9f5;}.cls-39{fill:#0c0700;}.cls-40{fill:#180f00;}.cls-41{fill:#fafbfb;}.cls-42{fill:#f9fcfc;}.cls-43{fill:#180e0e;}.cls-44{fill:#161313;}</style><clipPath id="clip-path"><rect class="cls-1" x="-1093.98" y="-354.96" width="1920" height="1080"/></clipPath></defs><title>simplemech-leg2</title><g class="cls-2"><path class="cls-3" d="M99.23,167.59c1.28.07,2.54.09,3.79.21,4.55.43,6.92,2.4,8.19,6.77.14.46.19.94.29,1.41a2.32,2.32,0,0,0,1.86,1.94,12.82,12.82,0,0,1,2.77.72,8.63,8.63,0,0,1,5.23,7.49c.3,4.3.36,8.63.23,12.94-.11,3.77-1.67,6.8-5.61,8a5.69,5.69,0,0,0-4,4.2c-1.16,3.76-3.23,7-7.69,7.63-.87.13-1.25.91-1.26,1.81a18.7,18.7,0,0,1-.11,3.82,11,11,0,0,0,2.48,10.07c2.82,3.5,3.93,8,5,12.33,2.89,11.79,3,23.75,2.31,35.74-.45,7.49-1.27,15-2,22.8.6.33,1.4.79,2.21,1.21a8.38,8.38,0,0,1,4,4.64,5.46,5.46,0,0,0,4.13,3.88,9.31,9.31,0,0,1,7.31,8.53,110.79,110.79,0,0,1,.11,15.78c-.21,4-3.46,5.89-6.56,7.63a8.09,8.09,0,0,1-2.75.8,2.82,2.82,0,0,0-2.14,1.64c-2.22,3.71-5.19,6.4-9.77,6.85a1.69,1.69,0,0,0-1.39,2.45,9.8,9.8,0,0,0,1.21,2A17.32,17.32,0,0,1,110,369c.48,3.13-.72,5.95-2.52,8.51a23.16,23.16,0,0,1-13,9.1,91.29,91.29,0,0,1-31.31,3.14,260.14,260.14,0,0,1-33.72-4.3c-4.87-.94-9.7-2.1-14-4.71a19.27,19.27,0,0,1-4-3.3,10.06,10.06,0,0,1-2.47-8.91,22.55,22.55,0,0,1,2.29-7.77,5.92,5.92,0,0,0,.78-3.65,30.16,30.16,0,0,1,4.53-18.3,6.19,6.19,0,0,0,.66-5.32,84.38,84.38,0,0,1-2.71-13.6,372,372,0,0,1-1.13-62.71,57,57,0,0,1,4.25-18.11,42.66,42.66,0,0,1,4.24-7.46A6,6,0,0,0,23,227.18a40.47,40.47,0,0,1,.93-14.74,30.93,30.93,0,0,1,3.61-9.34A10.28,10.28,0,0,0,29,197.2q-.06-26.62,0-53.23c0-9.59.22-19.18.28-28.77,0-6,1.61-11.37,5.94-15.68a3.85,3.85,0,0,0,1.09-3.46,1.93,1.93,0,0,0-1.72-2,12.32,12.32,0,0,1-5.65-2.45A12.62,12.62,0,0,1,26,74.17c3.64-5.25,7.39-10.42,11-15.65,6.15-8.77,12.22-17.58,18.4-26.31,4.62-6.52,9.45-12.89,14-19.45,3.4-4.91,8.12-6,13.48-5s8.43,4.68,10.16,9.76c1.26,3.7-.17,6.89-1.31,10.18a7,7,0,0,1-1.2,2.07c-2,2.54-2.56,5-1.07,8.23a18.35,18.35,0,0,1,1.2,8c-.19,5.75.19,11.48.1,17.22,0,3.2,0,6.4,0,9.59a7.85,7.85,0,0,0,1.36,4.94c2.27,3.31,3.16,7,1.69,10.89a5,5,0,0,0,0,3.26c.55,2,1.14,4,.34,6.11a2.75,2.75,0,0,0,.67,2.12c4.06,5.07,5.07,10.89,4.46,17.16a12.67,12.67,0,0,0-.17,2.37c.81,9.9,0,19.79-.16,29.68-.09,5.59-.09,11.19-.1,16.78a6.32,6.32,0,0,0,.41,1.48"/><path d="M69.67,385.48a250.23,250.23,0,0,1-33.35-3.27,79.46,79.46,0,0,1-8.46-1.63,62.45,62.45,0,0,1-9.46-3.34c-4-1.83-5.1-4.27-4.36-8.52a16.61,16.61,0,0,1,1.6-5.46,8.9,8.9,0,0,0,1.27-5.82,22.15,22.15,0,0,1,2.77-13.85c1-1.66,1.78-3.41,2.84-5,.89-1.32,1.2-2.4.21-3.88C21,332.12,20.63,329,20.2,326c-.79-5.52-1.53-11.08-1.89-16.65-.83-12.91-1.27-25.85-.83-38.79.21-6.21.77-12.43,1.57-18.6a54.53,54.53,0,0,1,2.59-9.68,23.44,23.44,0,0,1,5.31-9C28.2,232,28.31,230.74,28,229c-1.43-8.8-.16-17.2,4.63-24.86a6.72,6.72,0,0,0,1.16-5.42,6.15,6.15,0,0,1-.08-1.43q.12-29,.24-58c0-7.19.11-14.38.16-21.57,0-1-.07-1.92,0-2.88.19-5.38,1.89-10,6.54-13.19,1.21-.82,1.79-1.58,1-3.13A6,6,0,0,1,41.89,93a19.21,19.21,0,0,0,1-2.17,1.43,1.43,0,0,0-1.66-1.72c-.77.16-1.52.5-2.29.67a8,8,0,0,1-5.16-.49c-5.12-2.39-6.56-7.09-3.79-11.9,1-1.66,2.19-3.14,3.3-4.71Q51.61,46.59,70,20.53c1.29-1.83,2.6-3.65,4.05-5.34A7.77,7.77,0,0,1,83.6,13.4c3.45,1.71,5.61,5.58,4.82,9a23.85,23.85,0,0,1-1.84,4.89A15.8,15.8,0,0,1,84.26,31c-1.94,2.21-2.21,4.12-.35,6.71s2,6,1.94,9.24c0,3.67-.2,7.34-.19,11,0,5.91.15,11.82.19,17.73A5.5,5.5,0,0,0,87.34,80c2.43,2.4,2.63,5.44,1.36,8.43a4.83,4.83,0,0,0,0,4.07,8.46,8.46,0,0,1-.17,7,1.78,1.78,0,0,0,.56,2.49c4.94,3.7,5.71,8.94,5.33,14.59-.08,1.11-.3,2.22-.3,3.33q-.17,24.2-.27,48.41c0,.95,0,1.91,0,2.87a1.58,1.58,0,0,0,1.82,1.68c1.6,0,3.2,0,4.8,0a13.31,13.31,0,0,1,3.28.46,3.67,3.67,0,0,1,2.8,3,7.45,7.45,0,0,0,.35,1.39c.59,1.63-.35,3.92,1.25,4.9,1.21.73,3.07.37,4.64.54a3.73,3.73,0,0,1,3.16,2.61,12.41,12.41,0,0,1,.67,3.73c.11,2.88-.06,5.76.13,8.63s-1,4.54-3.73,5.27c-.15,0-.28.17-.43.22-1.35.38-3.13.37-3.93,1.25s-.48,2.74-1,4a24,24,0,0,1-2.43,4.62c-.65,1-1.87,1-3,1.12-1.39.09-2.78.34-4.16.52a27.79,27.79,0,0,0,0,4.18,33.2,33.2,0,0,1-.67,10.94c-.25,1.37-.36,2.41.79,3.44,3.84,3.44,5.78,8,7,12.83a85.14,85.14,0,0,1,3,20.82A241.73,241.73,0,0,1,105.6,306c-.09.63-.15,1.27-.23,1.9-.29,2.23-.16,2.8,2.34,3,3.4.2,4.74,1.53,5.52,4.84.11.46.11,1,.21,1.42.42,2,.43,2,2.35,2.36.95.16,1.9.26,2.83.47,3.26.73,5,2.59,5.11,6,.16,4,.17,8,.11,12,0,2.54-2.49,5-5.13,5.45a3.47,3.47,0,0,1-1,.06c-2.81-.37-4.7.43-4.72,3.66-1.8,2.4-3.34,5-7,4.89-1.67-.07-3.91-.91-4.94.64-.72,1.09-.17,3.05-.17,4.61,0,.8.06,1.6,0,2.4a4.29,4.29,0,0,0,1.47,3.82c2.11,1.81,2.46,4.42,2.58,7a5.92,5.92,0,0,1-.72,3.22c-2,3.12-4.1,6.17-7.78,7.48a68.94,68.94,0,0,1-7.78,2.36,70.77,70.77,0,0,1-19,2"/><path class="cls-3" d="M88.79,198.25A37.49,37.49,0,0,0,67.25,187c-.09-1.3-.19-2.39-.23-3.48-1-25.55-.48-51.12-.65-76.68a5.63,5.63,0,0,1,.1-1.89c.18-.49.75-1.2,1.14-1.2,4.93,0,9.87-.6,14.73.9,4,1.23,6.21,3.76,6.48,7.91q.25,4.06.28,8.14c.13,17.09.27,34.18.32,51.27,0,8-.15,16-.24,24,0,.44-.15.88-.39,2.29"/><path class="cls-3" d="M62.53,186.62c-10,1.23-10.51,1.41-22.75,8.25-.72-1.15-.38-2.43-.39-3.6q-.12-35.45-.19-70.89c0-2.23-.06-4.47-.14-6.7-.15-4.21,2.22-6.89,5.58-8.77a10.64,10.64,0,0,1,5.51-1.37c3.51.1,7,0,10.54.08,2.51,0,2.6.09,2.58,2.79q-.17,37.11-.39,74.24c0,1.9-.22,3.81-.35,6"/><path class="cls-4" d="M84.21,203.4c15.47,15.84,8.23,42.56-13,48.71A29.79,29.79,0,0,1,38.8,241.29a11.07,11.07,0,0,1-.86-1.68,31.82,31.82,0,0,1-.12-22.42c6.44-17.8,23.36-25,40.61-17.11a26,26,0,0,1,5.78,3.32"/><path class="cls-5" d="M67.83,315.61c-1.59-.05-3.17-.14-4.76-.15-2.39,0-4.79-.12-7.17,0-2.21.13-4.41.55-6.83.87a22.67,22.67,0,0,1-.51-2.74c-.14-2.38-.26-4.77-.26-7.16q0-23.18,0-46.36c0-1,0-1.92,0-2.87.09-2.1.34-2.33,2.24-1.69a36.45,36.45,0,0,0,12.64,2.2c2.21-.05,4.42-.4,6.63-.62,2.1,8.78,1.79,17.72,1.24,26.58s-.92,17.77-1.67,26.64c-.16,1.88.11,3.88-1.62,5.27"/><path class="cls-6" d="M74.29,35.77,54,65.28c-3.61,5.25-7.28,10.46-10.81,15.77a7.19,7.19,0,0,1-5.49,3.31,3.42,3.42,0,0,1-3.05-1c-.54-.6-1-1.25-.52-2.1.85-1.35,1.71-2.69,2.61-4Q52,54.92,67.21,32.64c2.7-3.93,5.43-7.84,8.14-11.75,3.09,1.17,2.38,3.67,2,6-.48,3.14-2.55,5.75-3.08,8.89"/><path class="cls-7" d="M94.9,375c-5,2.34-10.31,3.14-15.68,3.84-7.5,1-15,.29-22.47-.29A185.5,185.5,0,0,1,31.17,375a76.53,76.53,0,0,1-9.56-3c-2.08-.76-2.15-1.18-1.8-3.25a16.86,16.86,0,0,1,.36-1.88,1.73,1.73,0,0,1,2.5-1.39c1.51.49,3,1.14,4.52,1.55a95.31,95.31,0,0,0,17.4,3.18c6.52.46,13.06.86,19.59,1,3.49.07,7-.51,10.49-.75,1.59-.1,3.18-.08,4.77-.12.56.24-.79,1.15.24,1,3.27-.34,6.53-.94,9.78-.14,2.25.55,4.67,1,5.44,3.79"/><path class="cls-8" d="M84.21,203.4c-2.25-.78-4.54-1.47-6.74-2.36a35.75,35.75,0,0,0-15.93-2.64A18.64,18.64,0,0,0,55.07,200a28.62,28.62,0,0,0-14.81,14.32c-3.37,7.1-3.61,14.46-2.64,22,.14,1.1.22,2.21.32,3.32-10.54-14.5-4.28-39.5,17.8-45,10.2-2.54,19.22.12,27.09,6.92a10.6,10.6,0,0,1,1.38,1.85"/><path class="cls-9" d="M27.36,332.39a32.13,32.13,0,0,1,15.36-10A52,52,0,0,1,64.9,320a55,55,0,0,1,11.71,2.21,30.77,30.77,0,0,1,13.91,9.36c-21.23-6-41.77-6.83-63.16.81"/><path class="cls-9" d="M31.77,335.33c12.16-7.18,50.82-5.52,58.72,1.63-10,2.93-46.33,1.92-58.72-1.63"/><path class="cls-10" d="M97.71,277.24l-7.2-1.46c.17-1,.9-.88,1.36-.89,2.71-.05,5.42-.08,8.13,0,1.82,0,2.17.43,2.08,2.37-.2,4.78-.33,9.56-.75,14.32-1,11.91-2.88,23.72-5,35.48-.22,1.25-.46,2.5-.74,4-1.91-.81-2.88-2.48-4.13-3.79a2.88,2.88,0,0,1-.4-1.77,8,8,0,0,1,.29-1.88c2.7-11.34,4-22.9,5.53-34.42a66.53,66.53,0,0,0,.81-11.93"/><path class="cls-11" d="M88.83,270.66c-3.51,0-7,0-10.51,0-.87,0-1.49-.32-1.58-1.34-.19-1.92.12-2.93,1.26-3.16,1.56-.31,3.15-.44,4.72-.64,3.31-.42,6.65-.69,9.93-1.29,2.42-.45,3.4-1,3.37-4.18a51,51,0,0,0-2.82-15.9,5,5,0,0,1,.77-4.92c.42-.56,1.22-.72,1.53-.15a43.29,43.29,0,0,1,3,5.92,73.9,73.9,0,0,1,3.7,23.47c0,1.55-.41,2.08-1.91,2.11-3.82.07-7.64,0-11.46,0Z"/><path class="cls-12" d="M72.79,352.92c-2.63-4.72-6.93-7-12-7.61-7.43-.88-14.91-1.37-22.36-2.07A9.24,9.24,0,0,0,31,346a23.34,23.34,0,0,0-5,6.92c-.92,1.83-1.66,3.76-2.47,5.62a11.73,11.73,0,0,1-.24-8.32c1.39-3.54,3.15-6.94,4.8-10.39a1.91,1.91,0,0,1,2.39-1c10.65,2.28,21.5,2.6,32.31,3.24a20.86,20.86,0,0,0,3.34.15A4.35,4.35,0,0,1,70.71,345c1.14,2.26,2.13,4.61,3.19,6.92.23,1-.2,1.26-1.11,1.05"/><path class="cls-13" d="M67.83,315.61c.07-2.22.12-4.43.19-6.65a50.34,50.34,0,0,1,.65-8c.52-2.77.22-5.69.31-8.54.08-2.52-.16-5.06.67-7.54a10.69,10.69,0,0,0,.22-3.31c0-4.28.08-8.56,0-12.84a46.27,46.27,0,0,0-.65-5.62c-.28-2.06-.62-4.1.68-6a13.51,13.51,0,0,1,1.39-.36c1.47-.2,1.78,0,1.84,1.3,0,.64,0,1.28,0,1.91q-.19,26.32-.38,52.64a24.78,24.78,0,0,1-.13,2.86c-.13,1.15-1,1-1.77.85-.84-.68-2-.12-2.83-.67Z"/><path class="cls-14" d="M80.84,366.2c-.93-4.27-1.6-8.36-2.74-12.31-1.1-3.76-2.69-7.38-4.18-11.38,1.65,0,3.19,0,4.73-.11,3.66-.22,7.31-.5,11-.76,1.28-.09,1.95.46,2.24,1.91.15.72-.11,1.35-.82,1.44a14.4,14.4,0,0,0-5.91,1.74c-2.07,1.26-2.43,1.91-1.62,4.3a58.22,58.22,0,0,1,2.34,12.67,1.47,1.47,0,0,1-1.16,1.79c-1.21.27-2.44.46-3.85.71"/><path class="cls-15" d="M81.43,98.6l-31.56.11c-.32,0-.64,0-1,0A2.8,2.8,0,0,1,46,96.18,3.13,3.13,0,0,1,48.9,93a42.14,42.14,0,0,1,4.75-.34c7.5,0,15,0,22.48.08a8.6,8.6,0,0,1,1.41.22c.29,4.73-3,4-5.4,4.27,1.1.56,2.66-.34,4.24-.46,1.94-.15,4.15-.93,5.05,1.83"/><path class="cls-14" d="M76.54,67.36a100.39,100.39,0,0,0-1.61-19.51c-.65-3.56,1.37-5.64,3.36-7.87.09-.09,1,.23,1,.46a25.48,25.48,0,0,1,1,5.13c.23,8.92.33,17.84.47,26.76,0,1,0,1.91,0,2.87a2.23,2.23,0,0,1-3.37,1.85,2.15,2.15,0,0,1-.82-1.56c-.08-2.7,0-5.42,0-8.13"/><path class="cls-16" d="M77.62,87.39c-3.63.16-7.26.4-10.89.47-5.87.12-11.75.12-17.62.2-1.89,0-2.6-.77-2.2-2.61.49-2.24,1.36-3,3.53-3l31,.08c-1.63,3.18-5,2.78-7.72,3.54a25.29,25.29,0,0,1-5.2.74c2.77.33,6.09-2.13,9.14.57"/><path class="cls-17" d="M30.29,302.86a25.31,25.31,0,0,1-1.74-12c.82-9.88,2-19.7,5-29.21a20.67,20.67,0,0,1,1.38-3.56,1.81,1.81,0,0,1,1.52-.78c.37.05.89.89.87,1.36a12.51,12.51,0,0,1-.62,2.78,171.14,171.14,0,0,0-5.11,32.12c-.22,3-.8,6-1.26,9.29"/><path class="cls-18" d="M23.82,272.84c-.39-7.06-.46-14.1.94-21a38.36,38.36,0,0,1,4-11.72,10.85,10.85,0,0,1,1.43-1.88.87.87,0,0,1,.87-.12,4.77,4.77,0,0,1,1.24,5.06,36.06,36.06,0,0,0-2.38,5.69c-1.78,6.78-3.37,13.61-5.06,20.42-.29,1.2-.68,2.38-1,3.56"/><path class="cls-19" d="M106.36,345.92c-1.1.06-2.2.19-3.31.17-4.45-.07-3.75.63-5.55-4.06a3.23,3.23,0,0,1,.24-3.51c.19-.25.31-.55.48-.82,2.53-4.23,2.53-4.23,7.83-3.89,3,4,1.31,8,.31,12.11"/><path class="cls-20" d="M94.9,375a13.27,13.27,0,0,0-9.27-2.93c-2.94.1-5.88,0-9.63,0l3.44-1.78c3.75-.69,7.5-1.34,11.24-2.08A28,28,0,0,0,95.27,367c.89-.34,1.59-.9,2.58-.17a3.12,3.12,0,0,1,1.62,2.73,9.83,9.83,0,0,1-.93,3.6c-.7,1.37-2.15,1.78-3.64,1.85"/><path class="cls-21" d="M74.29,35.77a6,6,0,0,1-.33-2.2,49.09,49.09,0,0,1,2-5.89,6.5,6.5,0,0,0-.59-6.79,6.46,6.46,0,0,1,.73-1.74c1.64-2,3.78-2.49,5.39-1.29a4.36,4.36,0,0,1,1.12,6.24c-2.74,3.9-5.53,7.78-8.3,11.67"/><path class="cls-22" d="M114,330.74c0-1.27,0-2.54,0-3.81-.1-2.67.52-3.23,3.53-2.3a1.89,1.89,0,0,1,1.13,1.31c.07,3.48,0,7-.08,10.45,0,.42-.75,1.11-1.22,1.17-2.74.37-3.29-.07-3.21-2.54,0-1.43,0-2.86,0-4.28Z"/><path class="cls-23" d="M104,197.92c-3,1.23-5.91.17-8.85-.19a1.79,1.79,0,0,1-1.06-1.32,61.64,61.64,0,0,1,0-6.66c0-.41.73-1.06,1.21-1.14,1.39-.23,2.83-.23,4.25-.32a2.46,2.46,0,0,1,1.26,2.35c-.26,3.05,1.25,5.25,3.22,7.28"/><path class="cls-24" d="M108.71,329.12c-2,1-4,.45-6,.3-.33,0-.89-1-.82-1.41q.87-5.43,2-10.8c.07-.31,1-.43,1.51-.64,3,3.68,1.32,8.61,3.34,12.55"/><path class="cls-25" d="M77.62,87.39l-10.05-.6L72,85.39c1.36-.44,2.7-1,4.09-1.29s2.81-.45,4.19-.76c.42-.1.76-.53,1.13-.8,1.29-.7,2-.09,2.52,1.07.55,1.33.44,2.3-.49,2.91a5.1,5.1,0,0,1-2.09.87,30.78,30.78,0,0,1-3.72,0"/><path class="cls-26" d="M57.35,355a29.8,29.8,0,0,1,1.42-2.67c1-1.61,2.56-1.68,3.85-.28a4.47,4.47,0,0,1,.68,5.63,3.42,3.42,0,0,1-3.93,1.83c-1.5-.49-2.29-1.94-2-4.51"/><path class="cls-27" d="M104,197.92c-4.23-.34-4.26.61-4.24-4.51,0-1.71-.16-3.42-.24-5.12,5.25-1,4.85,0,4.86,4,0,1.88-.25,3.75-.38,5.63"/><path class="cls-20" d="M81.43,98.6c-.82-1-2-.88-3.07-.89-2.45,0-4.9,0-7.34-.2,4.71-1.39,4.71-1.39,6.52-4.55,1.4-.09,2.8-.27,4.2-.25a2.42,2.42,0,0,1,2.43,2.78c-.19,1.62-.66,3.1-2.74,3.11"/><path class="cls-28" d="M108.71,329.12c-2.32-.58-2.31-.58-2.44-2.1l-.9-10.45a6.38,6.38,0,0,1,1.88-.14c.51.11,1.31.56,1.35.94.48,3.91,1.17,7.83.11,11.75"/><path class="cls-29" d="M99.91,209c-1.36.15-2.9,1.2-4,.07A7,7,0,0,1,94,204.3c-.06-1.5.39-2.17,1.76-2.14s2.51.19,3.77.3c1.85,2.07,1.77,4.24.39,6.5"/><path class="cls-30" d="M99.9,184a7.62,7.62,0,0,1-.93.18c-5.64.34-5.79.16-4.61-5.9l5.08.24c1.76,1.69,1.71,3.54.46,5.48"/><path class="cls-31" d="M108.24,193.26a29.72,29.72,0,0,1,.06-3.78,1.86,1.86,0,0,1,1.17-1.15,1.23,1.23,0,0,1,1.68,1.15c.06,2.52,0,5.05,0,7.57a1.23,1.23,0,0,1-1.6,1.22,1.94,1.94,0,0,1-1.11-1.23,29.75,29.75,0,0,1-.06-3.78Z"/><path class="cls-32" d="M106.36,345.92c-.09-2-.21-4-.26-6.05s0-4,0-6.06c.76,0,1.69-.36,2.22,0a2.45,2.45,0,0,1,.8,2c-.24,3-.6,5.95-1,8.91a1.46,1.46,0,0,1-1.7,1.26"/><path class="cls-33" d="M99.91,209l-.39-6.5a29.86,29.86,0,0,1,3.26-.2c.29,0,.79.59.8.91a21.33,21.33,0,0,1-.24,3.29c-.34,2.44-.37,2.43-3.43,2.5"/><path class="cls-34" d="M99.9,184c-.15-1.82-.3-3.65-.46-5.48a17.13,17.13,0,0,1,1.86-.3c1.07-.06,1.87.32,2,1.51.11.78.21,1.57.26,2.36.11,1.78-.09,1.95-2.25,2A14,14,0,0,1,99.9,184"/><path class="cls-3" d="M72.79,352.92l1.11-1.05c2,2.5,1.64,5.67,2.57,8.32-.23.31-.31.41-.38.52-.13-.1-.32-.18-.37-.3l-2.93-7.49"/><path class="cls-3" d="M68,315.65a2.2,2.2,0,0,1,2.83.67,2.71,2.71,0,0,1-2.83-.67"/><path class="cls-35" d="M45.5,132.82a9.87,9.87,0,0,1-1.34-2.28,29.59,29.59,0,0,1,1.67-17.75,5.68,5.68,0,0,1,3.11-3.43,2.14,2.14,0,0,1,2.62.45,1.75,1.75,0,0,1,.1,2.22c-2.81,3.92-3.3,8.52-3.94,13.09a41,41,0,0,1-1,4.66,24.12,24.12,0,0,1-1.26,3"/><path class="cls-36" d="M50.26,119.11a13.11,13.11,0,0,1,.44-1.93A1.51,1.51,0,0,1,52.51,116a2.94,2.94,0,0,1,1.66,1.41,4.28,4.28,0,0,1,.13,2.31c-.24,1.46-1.37,2.75-2.23,2.77s-1.76-1.48-1.81-3.42"/><path class="cls-37" d="M51.49,233.68a4.51,4.51,0,0,1-1.67-3.77c0-4.75,0-9.51,0-14.26a8.39,8.39,0,0,1,.46-2.31A2.86,2.86,0,0,1,53,211c4.44-.08,8.88-.21,13.3,0,1.26.06,2.46,1.28,3.68,2,2.54,5.68,1.35,11.59,1,17.43a3.5,3.5,0,0,1-2.09,3.05c-5.76,2.24-11.57,3.43-17.4.18"/><path class="cls-38" d="M51.49,233.68c3.66,0,7.32.21,11,.1a28.83,28.83,0,0,0,6-1A2.55,2.55,0,0,0,70,231.14a13.55,13.55,0,0,0,.19-3.32c0-4.93-.1-9.87-.15-14.8a4.36,4.36,0,0,1,3.18,3.26,24.18,24.18,0,0,1,.65,14.57,8.4,8.4,0,0,1-5.75,5.9,22.05,22.05,0,0,1-11.32.87c-2.27-.42-4.89-.81-5.27-3.94"/><path class="cls-39" d="M84.89,227.7c-.52,1.89-.89,3.93-1.62,5.83a31.44,31.44,0,0,1-5.24,9,17.68,17.68,0,0,1-2.7,2.63,2.1,2.1,0,0,1-2.65.07c-.67-.48-.5-1.31.43-2.45,1.4-1.71,2.89-3.37,4.13-5.19a23.23,23.23,0,0,0,4-10.07,6.23,6.23,0,0,1,.58-2.26,2.16,2.16,0,0,1,1.48-.82c.3,0,.84.45,1,.82a17.26,17.26,0,0,1,.6,2.43"/><path class="cls-40" d="M83.86,218.08a11.51,11.51,0,0,1-.56,1.69c-.61,1.27-3,1.49-3.59.23a9.7,9.7,0,0,1-.77-3.62,2.42,2.42,0,0,1,2.14-2.21,2.61,2.61,0,0,1,2.42,1.92c.16.61.23,1.24.36,2"/><path class="cls-25" d="M67,273.7a7.27,7.27,0,0,1-6.84,7.21c-3.26.16-6.48-3.29-6.6-6.78a7.59,7.59,0,0,1,7.11-7.56c2.94-.23,6.28,3.59,6.33,7.13"/><path class="cls-41" d="M61.05,303.09c-3.84,0-6-1.88-7-6-.61-2.37,1.14-5.87,3.74-7a6.84,6.84,0,0,1,5.55.07,4.61,4.61,0,0,1,3,3.94c.3,1.86,1.1,3.57.14,5.52-1.19,2.38-2.81,3.8-5.37,3.53"/><path class="cls-42" d="M54.35,221.54c.31-1.39-.82-3.49.45-5.38,1.88-.11,3.75-.23,5.63-.31,1.11,0,2.22,0,3.33,0,2,.06,2.13.21,2.15,2.26,0,2.85,0,5.7,0,8.56,0,1.11-.44,1.81-1.64,1.81-2.69,0-5.39,0-8.08,0-1.56,0-1.77-.29-1.82-2,0-1.43,0-2.86,0-4.86"/><path class="cls-43" d="M60.12,271.57c2.44.24,3.52,1.27,3.29,3.16a3.22,3.22,0,1,1-6.36-.89,2.57,2.57,0,0,1,3.07-2.27"/><path class="cls-44" d="M63.71,295.87a4.23,4.23,0,0,1-3.86,4.06,3.56,3.56,0,0,1-3.17-3c0-1.72,2.36-4.2,4-4.17a3.55,3.55,0,0,1,3.08,3.11"/></g></svg>