<svg id="Layer_1" data-name="Layer 1" xmlns="http://www.w3.org/2000/svg" xmlns:xlink="http://www.w3.org/1999/xlink" viewBox="0 0 130.93 394.89"><defs><style>.cls-1{fill:none;}.cls-2{clip-path:url(#clip-path);}.cls-3{fill:#fff;}.cls-4{fill:#f90;}.cls-5{fill:#cdcdcd;}.cls-6{fill:#fd9801;}.cls-7{fill:#ccc;}.cls-8{fill:#fbfcfc;}.cls-9{fill:#fcfdfd;}.cls-10{fill:#fbfbfb;}.cls-11{fill:#f9fcfa;}.cls-12{fill:#f7f7f7;}.cls-13{fill:#f8fafa;}.cls-14{fill:#fafbfb;}.cls-15{fill:#f4f4f4;}.cls-16{fill:#cbc9c9;}.cls-17{fill:#b5b7b7;}.cls-18{fill:#f3f4f4;}.cls-19{fill:#f4f5f5;}.cls-20{fill:#fa9705;}.cls-21{fill:#f6fafa;}.cls-22{fill:#f7f6f2;}.cls-23{fill:#e48e0b;}.cls-24{fill:#e58e0a;}.cls-25{fill:#f9fcfc;}.cls-26{fill:#e89013;}.cls-27{fill:#edefef;}.cls-28{fill:#f2ede4;}.cls-29{fill:#f5f9f9;}.cls-30{fill:#f0f1ee;}.cls-31{fill:#f99702;}.cls-32{fill:#f39708;}.cls-33{fill:#d5870f;}.cls-34{fill:#f2efe9;}.cls-35{fill:#f2ece0;}.cls-36{fill:#f2ece1;}.cls-37{fill:#a9a7a7;}.cls-38{fill:#0a0909;}.cls-39{fill:#1b1b1b;}.cls-40{fill:#020201;}.cls-41{fill:#0b0a08;}.cls-42{fill:#090603;}.cls-43{fill:#f0f7f2;}.cls-44{fill:#f9fbfb;}.cls-45{fill:#fafcfc;}.cls-46{fill:#e4e6e6;}.cls-47{fill:#fffefe;}.cls-48{fill:#140b0b;}.cls-49{fill:#1b1919;}</style><clipPath id="clip-path"><rect class="cls-1" x="-956.61" y="-354.96" width="1920" height="1080"/></clipPath></defs><title>simplemech-leg1</title><g class="cls-2"><path class="cls-3" d="M64.84,390.06A85.94,85.94,0,0,1,36,386.37a22.8,22.8,0,0,1-11-7.18c-5-5.74-4.53-11.51-1.55-17.27a34.28,34.28,0,0,0,1.75-3.34,1.48,1.48,0,0,0-1.25-2.09c-4.76-.48-7.82-3.29-10-7.22A2.3,2.3,0,0,0,12,348a12.48,12.48,0,0,1-6.31-3.17,9.53,9.53,0,0,1-3.48-7.55c-.06-3.68-.09-7.36,0-11a11.93,11.93,0,0,1,2.34-7.15c1.52-2,3.21-3.58,5.73-4a3.93,3.93,0,0,0,3.58-3.17A7.31,7.31,0,0,1,18,306.87c2.47-.93,2.35-2.57,2.14-4.54-.46-4.29-.85-8.58-1.28-12.87a179.27,179.27,0,0,1-.55-26.82A79.31,79.31,0,0,1,22.13,242a28.66,28.66,0,0,1,5.43-10,4,4,0,0,0,1.11-3.45c-.32-2.52-.47-5.07-.64-7.61-.08-1.08-.44-1.89-1.58-2.06-4.3-.64-6.07-3.87-7.27-7.42a6,6,0,0,0-3.95-4.25c-4.12-1.33-5.65-4.42-5.66-8.47s0-8,.16-12c.18-4.41,2.55-7.32,7-8.48,1.78-.46,2.74-1.25,3-3.06.86-5.28,4.94-7.41,9.16-7.39a11.08,11.08,0,0,0,2.38-.16c.37-.08.72-.54,1-.9a1.93,1.93,0,0,0,.09-.94c0-5,0-9.91,0-14.87-.14-9.58-.36-19.15-.53-28.73-.05-2.55,0-5.11,0-7.66-.13-5.11,1-9.83,4.28-13.87a3.3,3.3,0,0,0,.8-3.49,7,7,0,0,1,.38-4.69,5.8,5.8,0,0,0,0-4.22c-1.5-3.63-.51-7,1.47-10A10.43,10.43,0,0,0,40.42,72c-.05-8.46,0-16.93,0-25.4A24.16,24.16,0,0,1,42.58,35.4a2.39,2.39,0,0,0-.19-2.62c-1.65-2.72-3.37-5.37-4.21-8.55A13.34,13.34,0,0,1,49.53,7.57c4.93-.48,9.08.76,12.1,5.1,4.57,6.55,9.42,12.9,14,19.42,8.11,11.48,16.13,23,24.19,34.53q2.46,3.54,5,7c5.08,7.1,2.65,16-5.33,19.56a19.26,19.26,0,0,1-2.26.74,3,3,0,0,0-1.59,5.08,25.51,25.51,0,0,1,4.52,6.72,24.09,24.09,0,0,1,1.74,9.34q.06,40.76.15,81.5a12.26,12.26,0,0,0,1.48,6.36,38.63,38.63,0,0,1,4.66,24,5.41,5.41,0,0,0,1,4.4c4.71,6.12,6.89,13.31,7.91,20.8a139,139,0,0,1,1.2,17.66c.1,11.34.12,22.7-.38,34-.46,10.35-1,20.76-4.28,30.74a3.72,3.72,0,0,0,.37,3.14,74.45,74.45,0,0,1,3.67,7.78,23.94,23.94,0,0,1,1.5,9.89,11.7,11.7,0,0,0,1.21,6.44,18.87,18.87,0,0,1,1.82,8.36c.13,4.44-1.89,7.64-5.5,10a30.25,30.25,0,0,1-9.67,4.06,197.64,197.64,0,0,1-24.54,4.14c-5.88.58-11.76,1.1-17.65,1.65"/><path d="M43.33,101c-1.78-3.24-2.08-6.28-.58-9.43a2.85,2.85,0,0,0,0-2.22c-1.9-3.75-1.47-7,1.52-10a4.25,4.25,0,0,0,.93-2.56c.14-2.07.06-4.15.05-6.23q0-12,0-24c0-3.75.53-7.37,2.86-10.43,1-1.31.74-2.26-.08-3.42-1.11-1.57-2.22-3.14-3.16-4.8A21.86,21.86,0,0,1,43,23.54a8.67,8.67,0,0,1,9.93-10.89,7.45,7.45,0,0,1,4.69,3.08c3.1,4.26,6.29,8.46,9.32,12.77Q83.63,52.23,100.22,76a15.28,15.28,0,0,1,1.31,2,8.18,8.18,0,0,1-8.16,11.91,28.74,28.74,0,0,1-3.71-.84,1.33,1.33,0,0,0-1.38,1.54,25.25,25.25,0,0,0,1.11,2.63c.61,1.35,1.11,2.86.45,4.17-1.14,2.27-.62,3.52,1.47,5,4,2.74,5.37,7,5.69,11.64.18,2.55,0,5.11,0,7.67q.08,35.47.17,70.94a31.36,31.36,0,0,1,0,3.36,16.92,16.92,0,0,0,2.46,10.4,32,32,0,0,1,3.45,22.26,4.9,4.9,0,0,0,1.19,4.76c4.87,5.45,6.8,12.23,8,19.22A79.11,79.11,0,0,1,113.31,265c.09,12.78.13,25.56-.16,38.34a158.6,158.6,0,0,1-2.56,24.27c-.49,2.69-1,5.35-2.51,7.68a2.22,2.22,0,0,0,.13,2.66c.94,1.48,1.81,3,2.7,4.52a24.49,24.49,0,0,1,3.33,15.65,7.21,7.21,0,0,0,.86,4.52,20.71,20.71,0,0,1,2,6.31c.64,4.13-.53,6.35-4.23,8.19a32.51,32.51,0,0,1-7.13,2.74c-5.75,1.3-11.55,2.56-17.39,3.33-10.45,1.39-21,2.52-31.52,2.23a80.24,80.24,0,0,1-19.79-3.35c-4.29-1.22-7.27-4-9.66-7.42s-1.59-7.22.61-10.32c1.4-2,2.26-3.73,2-6.06-.24-2,1.21-4,.05-6-1.89-.13-3.78-.3-5.68-.36-3.42-.12-5.26-2.7-6.16-5.18s-2-3.41-4.66-3.39c-4.06,0-6.46-2.61-6.47-6.64,0-3.52.1-7,.34-10.54.28-4.12,1.69-5.56,5.78-6.37a2,2,0,0,1,.47-.09c2.66.13,4.28-.84,4.09-3.79a1.31,1.31,0,0,1,.12-.46c.86-2.86,2.4-4.73,5.75-4.71,2.3,0,2.47-.4,2.23-2.52-.76-6.5-1.7-13-2.21-19.5-.86-11-1.32-22,.33-33,.42-2.83,1.08-5.64,1.73-8.43,1.17-5.06,3.16-9.73,6.95-13.43a3.42,3.42,0,0,0,1.07-3.44,34,34,0,0,1-.31-14.27c.2-1-.47-1.43-1.37-1.51-.64-.06-1.28,0-1.92-.07-3.9-.18-6.07-2-6.84-5.86a27.12,27.12,0,0,1-.24-2.86,1.56,1.56,0,0,0-1.44-1.6,13.34,13.34,0,0,1-1.43-.12c-4.88-1.17-5.74-2.24-5.73-7.17,0-2.4,0-4.8,0-7.19a19.19,19.19,0,0,1,.1-2.4c.39-2.8,1.89-4.36,4.75-4.3,4.13.08,4.25-.34,4.71-4.14.62-5.16,1.8-6.06,7.21-6.13,1.44,0,2.88,0,4.31,0A1.61,1.61,0,0,0,37.33,171c0-1.28.05-2.56,0-3.83-.19-9.91-.42-19.81-.56-29.71-.12-7.83-.15-15.65-.17-23.48,0-5.25,1.64-9.72,6.7-13"/><path class="cls-3" d="M42,198.27c-.18-7.12-.47-13.18-.44-19.24.07-13.08.34-26.17.48-39.25.08-7.82.07-15.64.12-23.46a41.31,41.31,0,0,1,.19-4.31,7.59,7.59,0,0,1,5.6-7,21.24,21.24,0,0,1,8.42-1.34c2.66.25,5.39-.58,8,.54.07,2.55.21,5.09.2,7.63q-.14,33.53-.33,67c0,2.55,0,5.1,0,7.53-4.18,1.51-8.1,2.78-11.89,4.34S45.73,195,42,198.27"/><path class="cls-3" d="M91.69,195.58c-7.28-5.67-14.62-8.43-22.79-8.78-.9-1.75-.59-3.54-.62-5.26Q68,165.76,67.91,150c-.07-13.88,0-27.75,0-41.63A21.83,21.83,0,0,1,68,105c.08-.49.68-1.27,1.06-1.27,4.63-.09,9.27-.3,13.87,0a9.54,9.54,0,0,1,6.94,3.81,10,10,0,0,1,2.33,6.57q-.32,22.26-.43,44.51c-.06,10.52,0,21.05,0,31.58v5.36"/><path class="cls-4" d="M88.44,202.09c5.52,4.22,8.21,10.13,9.3,16.71,2.58,15.57-7,29.83-22.38,33.62a29.52,29.52,0,0,1-35-18.77,31.36,31.36,0,0,1-.8-3.21,47.24,47.24,0,0,1,3.72-17c5-12.88,22-20.7,35.35-15,3.2,1.37,6.69,2,9.82,3.63"/><path class="cls-5" d="M61.48,257.15a36.59,36.59,0,0,0,19.73-1.85,2.77,2.77,0,0,1,.91,0,2.39,2.39,0,0,1,.32.31.85.85,0,0,1,.18.44q0,28,0,56c0,1.12-.09,2.23-.2,3.34a4.49,4.49,0,0,1-.53,1.12c-6-1.62-12.24-1-18.44-.9-2.63-3.6-2.21-7.95-2.35-11.91-.41-11.75-1.76-23.47-1.19-35.24.19-3.81.12-7.64,1.52-11.27"/><path class="cls-6" d="M55.82,21c.69.86,1.44,1.68,2.06,2.59Q76.24,50.52,94.59,77.48c.63.92,1.27,1.84,1.85,2.79,1.2,2,.29,3.93-2,4.06a6.51,6.51,0,0,1-5.92-2.47c-.29-.39-.54-.8-.81-1.19q-14.16-20.52-28.32-41a21.66,21.66,0,0,1-1.1-2.08c-1.18-3.44-3.87-6.22-4.39-9.93-.34-2.46-1.19-5.12,1.9-6.61"/><path class="cls-7" d="M51.92,370.33a29.18,29.18,0,0,1,4.29.1c7.63,1.23,15.3,1,22.94.49a112.78,112.78,0,0,0,19.44-2.65c3.24-.79,6.43-1.82,9.64-2.75,1.63-.48,2.31-.11,2.79,1.58.09.3.17.62.23.93.53,2.55.36,3.18-2,4.07a64,64,0,0,1-9.11,2.83,212,212,0,0,1-39.46,4.35c-8.29.15-16.54-.78-24.27-4.24,0-3.37,2.84-3.41,5-3.92,3.3-.78,6.68-.3,10,.25,2,.35-.21-1,.54-1"/><path class="cls-8" d="M40.58,331.69a26.7,26.7,0,0,1,10.83-8.22,36.81,36.81,0,0,1,12.43-3.22c5.26-.38,10.48-1,15.74,0a54.68,54.68,0,0,1,14.56,4.51,28.54,28.54,0,0,1,9.09,7.1c-4-.59-7-2.35-10.36-2.89s-6.92-1.26-10.4-1.6S75.46,327,72,327s-7,.09-10.52.42A96.18,96.18,0,0,0,51,329c-3.39.7-6.72,1.73-10.46,2.72"/><path class="cls-9" d="M40.69,337c2.49-2.22,7.07-3.85,14.47-5,15.28-2.41,34.9-1.47,44.23,3.15-9.73,3.63-48,4.86-58.7,1.88"/><path class="cls-10" d="M35.58,331.41c-1-5.43-1.91-10.27-2.67-15.14A301,301,0,0,1,29.21,282c0-.79-.14-1.59-.16-2.39-.18-4.9-.49-4.79,4.47-4.76a28.19,28.19,0,0,1,7.24.68,14.07,14.07,0,0,1-1.85.66c-1.4.31-2.82.55-4.23.82a1.49,1.49,0,0,0-1.29,1.69,71.32,71.32,0,0,0,.36,7.18q2.2,15.66,4.62,31.28c.41,2.68,1.17,5.3,1.64,8a3.05,3.05,0,0,1-.44,2.21c-1.07,1.33-2.38,2.47-4,4.09"/><path class="cls-8" d="M36.13,238.42c2.14,1.85,2.53,3.51,1.73,5.81a47.38,47.38,0,0,0-2.73,15.93c0,2.85.14,3.28,3,3.94a76.07,76.07,0,0,0,7.53,1.18c2.21.27,4.45.34,6.66.64a2.76,2.76,0,0,1,2,4,1.78,1.78,0,0,1-1.14.7,8.59,8.59,0,0,1-1.9.1H33.09c-.8,0-1.6,0-2.39-.09-1.05-.1-1.81-.54-1.78-1.76s0-2.24,0-3.35a75.18,75.18,0,0,1,3.53-20.16,21.1,21.1,0,0,1,3.63-6.89"/><path class="cls-11" d="M88.44,202.09c-2.32-.46-4.66-.85-7-1.39a26.41,26.41,0,0,1-3.6-1.24c-8.18-3.14-15.9-1.53-23.37,2.34a19.13,19.13,0,0,0-6.83,6.52,39.28,39.28,0,0,0-6.38,15.26c-.43,2.31-1.16,4.57-1.75,6.86-4.85-16.73,8.54-37.65,30.32-36.67a28.34,28.34,0,0,1,17.07,6.52,12.56,12.56,0,0,1,1.5,1.8"/><path class="cls-12" d="M61.48,257.15a5,5,0,0,1,.7,4.1,31.71,31.71,0,0,0-.68,5.65q-.12,8.63,0,17.24c0,2.06.44,4.1.63,6.15.12,1.27.18,2.55.24,3.82.23,4.92-.28,9.86.84,14.77.49,2.14.21,4.45.28,6.69l-.16,0c-.85.62-2,0-2.84.69-.75.13-1.62.5-1.9-.63a8,8,0,0,1-.16-1.9q-.3-27.33-.58-54.65a8.64,8.64,0,0,1,0-1.44c.16-1,.85-1.21,1.75-1l1.85.47"/><path class="cls-13" d="M58.43,348.91a5.35,5.35,0,0,1,.28-.91c2.82-5.55,2.82-5.51,9-5.91,7.48-.49,15-1,22.44-1.63,3.48-.31,6.94-1,10.39-1.63a2.18,2.18,0,0,1,2.69,1.34c1.49,3.17,3,6.32,4.38,9.54,1.3,3.05.76,6.29.73,10.37-.8-1.73-1.32-2.71-1.72-3.74a30.21,30.21,0,0,0-5-8.69c-2.61-3.12-5.74-4.86-10-4.39-7,.78-14,1.22-21,2A16.06,16.06,0,0,0,59.52,351a2.21,2.21,0,0,0-.82,1.06,1.26,1.26,0,0,1-.36.67c-.88.2-1.28,0-.93-1l.45-1.67a12.63,12.63,0,0,1,.57-1.17"/><path class="cls-14" d="M57.62,342.8a48.42,48.42,0,0,0-5.55,14.52c-.58,2.48-.89,5-1.36,7.54a1.34,1.34,0,0,1-1.7,1.23c-4.13-.94-4-.45-3.57-4.49a49,49,0,0,1,2.39-11.21c.59-1.6.24-2.21-1.19-3.22a12.35,12.35,0,0,0-6.27-2.12,1,1,0,0,1-1.06-1.26,6.08,6.08,0,0,1,1.06-2c.12-.18.6-.17.91-.15l16.34,1.17"/><path class="cls-15" d="M52.07,38.71c1.42,1.87,2,2.77,2.74,3.6C56.27,44,56.42,45.8,56.09,48a111.8,111.8,0,0,0-1.43,18.55c.06,2.7,0,5.41,0,8.11,0,2.26-.58,2.69-2.92,2.51a1.46,1.46,0,0,1-1.53-1.48c0-1,0-1.91,0-2.86-.45-9.39.6-18.74.69-28.12,0-1.67.64-3.34,1.18-6"/><path class="cls-16" d="M53.8,93c4.46-.1,8.91-.27,13.37-.27,4.94,0,9.87.21,14.81.26a3,3,0,0,1,2.89,2,2.65,2.65,0,0,1-1.93,3.62,9.78,9.78,0,0,1-1.43.06l-31.57-.12c.78-2.53,2.85-2,4.67-1.86,1.64.13,3.22.79,5.06.48.49,0-.48-.91-.15-.37.13.21,0,.35-.36.31-2.62-.31-6.13.52-5.36-4.16"/><path class="cls-17" d="M50,82.59c7.32,0,14.63.06,21.94,0,3,0,6-.16,9.06-.18a3.61,3.61,0,0,1,3.24,4.66,1.17,1.17,0,0,1-.57.68,3.8,3.8,0,0,1-1.37.27c-6.35,0-12.71-.06-19.06-.18-3.16-.06-6.31-.32-9.47-.49,3-2.68,6.15-.38,8.66-.58-2.66-.67-6.16-.51-9.29-1.93-1.2-.55-2.93-.38-3.14-2.3"/><path class="cls-18" d="M101.22,302.6C99.41,297.45,99.5,292.16,99,287a163,163,0,0,0-4.37-24.93,28,28,0,0,1-.59-4.19c0-.18.36-.51.61-.58s.75,0,.87.12A8.05,8.05,0,0,1,97,259.77c1.25,4.61,2.64,9.2,3.48,13.88,1,5.49,1.48,11.06,2.15,16.6a29.21,29.21,0,0,1-1.37,12.35"/><path class="cls-19" d="M107,271.52c-1.77-7.09-3.5-14.18-5.33-21.25-.52-2-.87-4.25-2.06-5.82-2.06-2.71-1-4.54.91-6.64,1.89,1.69,2.77,3.92,3.61,6.14a52.46,52.46,0,0,1,3,12.53,53.69,53.69,0,0,1-.1,15"/><path class="cls-20" d="M25.14,333.84c3.43-.87,5.84-.06,7.63,3.4a6.26,6.26,0,0,1,.37,6.09c-1.19,2.68-1.07,2.76-4.05,2.76-1.41,0-2.82-.13-4.23-.21-.84-4-2.58-8.09.28-12"/><path class="cls-21" d="M51.92,370.33l3.4,1.77c-4.47,0-8.17-.12-11.86,0-2.64.11-5.37.34-7.06,2.9-3.8-1.06-5.08-2.62-4.7-5.76.25-2.17,1.75-2.88,4-2.36,5.08,1.19,10.21,2.16,15.32,3.22l.93.19"/><path class="cls-22" d="M55.82,21a5.8,5.8,0,0,0-.93,5.78c.71,2.25,1.54,4.46,2.27,6.7.44,1.34.77,2.71,1.15,4.06C55,33,51.71,28.54,48.46,24a4.31,4.31,0,0,1,.91-5.94c1.57-1.37,3.82-1.1,5.47.8a8.55,8.55,0,0,1,1,2.14"/><path class="cls-23" d="M17,331.25c0,1.58,0,3.16,0,4.74,0,1.28-.68,1.7-2.28,1.67s-2.13-.4-2.17-1.81c-.07-3-.09-6,0-9a2.84,2.84,0,0,1,4-2.4,1.58,1.58,0,0,1,.64,1.12,26.91,26.91,0,0,1,0,2.84v2.85Z"/><path class="cls-24" d="M31.77,188.29c6.36,0,5.51,0,5.49,5.77a8.8,8.8,0,0,1-.13,2.36c-.14.52-.67,1.27-1.1,1.33-2.93.4-5.87,1.36-8.84.23,4-2.07,2.36-6.79,4.58-9.69"/><path class="cls-25" d="M50,82.59c.23.22.45.59.69.61,4.31.35,8.16,2.46,12.35,3.24.09,0,.13.28.18.38l-9.45.58a44.2,44.2,0,0,1-4.61-.13A2.3,2.3,0,0,1,47,85.17a2.6,2.6,0,0,1,1.27-2.77c.43-.22,1.14.11,1.72.19"/><path class="cls-26" d="M25.82,316.58c1-.24,1.48.36,1.65,1.18.4,2,.7,4,1.08,6,1.21,6.27.74,6.69-6.05,5.36,1.44-2,1.1-4.26,1.21-6.47s.1-4.51,2.11-6.1"/><path class="cls-27" d="M73.92,355.42c0,2.21-.81,3.54-2.13,4a3.35,3.35,0,0,1-3.7-1.38,4.64,4.64,0,0,1,.09-5.68c1.46-1.9,3.2-1.82,4.43.27a29.66,29.66,0,0,1,1.31,2.77"/><path class="cls-28" d="M31.77,188.29c-.09,2.34-.17,4.68-.27,7-.09,2.12-.32,2.35-2.44,2.57-.62.06-1.25.06-1.87.1-.11-2.78-.24-5.57-.31-8.35,0-1.07.48-1.79,1.67-1.7s2.15.23,3.22.36"/><path class="cls-29" d="M53.8,93a2.86,2.86,0,0,0,2.06,2.91c1.46.51,3,.9,5.33,1.61-3.3.29-5.74.16-8.16.21-1.11,0-2.27-.15-3.1.87-1.62.37-2.4-.76-2.7-1.94a5.9,5.9,0,0,1,.36-3.11c.13-.4,1-.77,1.55-.78,1.56,0,3.11.14,4.66.23"/><path class="cls-30" d="M25.82,316.58c-.29,3.48-.74,7-.82,10.44-.05,2-1.31,1.85-2.5,2.13-1-3.94-.33-7.89,0-11.83,0-.32.61-.79,1-.83a14.62,14.62,0,0,1,2.38.09"/><path class="cls-31" d="M31.7,202.48c.61-.08,1.23-.18,1.84-.25,3.14-.35,4.57-.15,3.06,4.37a12.1,12.1,0,0,1-.56,1.28c-.78,1.6-.93,1.69-2.92,1.45-.62-.08-1.22-.26-1.83-.39-1.17-2.24-1.26-4.4.41-6.46"/><path class="cls-32" d="M31.77,178.49c.63-.07,1.25-.21,1.88-.22,3.83-.07,4,.1,3.75,3.92-.11,1.82-.41,2.13-2.33,2.08-1.25,0-2.51-.2-3.76-.31a4.3,4.3,0,0,1,.46-5.47"/><path class="cls-33" d="M23,194a25.11,25.11,0,0,1-.29,3.42c-.06.37-.93.73-1.47.81-.31,0-1-.44-1-.71-.09-2.84-.11-5.69,0-8.53,0-.28,1-.77,1.49-.71a1.72,1.72,0,0,1,1.24,1.09A38.69,38.69,0,0,1,23,194"/><path class="cls-34" d="M25.14,333.84c0,2.31,0,4.63-.06,7,0,1.7-.15,3.4-.22,5.09l-1.19-.12h-.1c-.5-3.2-1.13-6.39-1.44-9.62-.23-2.47.12-2.62,3-2.29"/><path class="cls-35" d="M31.7,202.48c-.14,2.15-.27,4.31-.4,6.46l-1,.09c-1.2.06-2.26-.07-2.4-1.6,0-.48-.1-1-.17-1.43-.52-4-.52-4,3.93-3.52"/><path class="cls-36" d="M31.77,178.49c-.15,1.83-.3,3.65-.46,5.47-.77,0-1.55.11-2.32.11s-1.49-.39-1.44-1.37.13-1.85.26-2.77c.21-1.5.45-1.71,2.15-1.73a10.33,10.33,0,0,1,1.81.29"/><path class="cls-3" d="M57.41,351.75l.93,1c-.64,1.58-1.28,3.16-2,4.73,0,.12-.23.19-.54.42"/><path class="cls-3" d="M60.5,316.29a2.34,2.34,0,0,1,2.84-.69,2.79,2.79,0,0,1-2.84.69"/><polyline class="cls-20" points="23.57 345.75 23.69 345.58 23.67 345.76 23.57 345.75"/><path class="cls-37" d="M58.43,348.91l-.57,1.17.57-1.17"/><path class="cls-37" d="M58.7,352.07l.82-1.06Z"/><path class="cls-38" d="M87.52,123.53c0,3.47.15,5.87-1,8.09a1,1,0,0,1-.66.53.94.94,0,0,1-.75-.43c-.56-1.81-1.15-3.62-1.56-5.47s-.62-3.76-.91-5.65a18,18,0,0,0-3.14-8.39,1.73,1.73,0,0,1,.17-2.55,2,2,0,0,1,2.64-.2,8.31,8.31,0,0,1,2.78,3.11,62.49,62.49,0,0,1,2.24,8.23,11.54,11.54,0,0,1,.16,2.73"/><path class="cls-39" d="M80.83,119.26c0,1.58-.65,3-1.51,3.25s-2.25-1.23-2.53-3c-.33-2.09.57-3.67,2-3.56,1.28.1,2,1.27,2,3.27"/><path class="cls-40" d="M69.68,234.89c-2.75-.61-4-2.21-3.85-5.13.18-4.78.08-9.57.11-14.36a4.88,4.88,0,0,1,1.46-3.88c2-1.81,2.69-2.05,5-.5q6,4,11.8,8.2c2.11,1.52,2.11,2.12.65,4.77a27.45,27.45,0,0,1-15.16,10.9"/><path class="cls-41" d="M61.52,224.05c0,2.55,0,5.11,0,7.66a2.54,2.54,0,0,1-2,2.41,14.07,14.07,0,0,1-7.1.42c-2.28-.33-3.48-2-3.45-4.41.06-3.67.16-7.34.24-11a3.69,3.69,0,0,1,0-.47c.77-7.93,1.8-7.62,9.09-7.33,1.74.07,2.48.87,2.8,2.71a32.35,32.35,0,0,1,.45,4.28c.07,1.91,0,3.83,0,5.75Z"/><path class="cls-42" d="M95.32,223.86c-.45,2.32-.82,4.67-1.39,7a5.36,5.36,0,0,1-1.4,2.43,2.81,2.81,0,0,1-2.09.59c-.42-.06-1-.88-1-1.4a9.62,9.62,0,0,1,.17-3.3A21.79,21.79,0,0,0,87.45,213a4.49,4.49,0,0,1-.71-1.74,2.2,2.2,0,0,1,.6-1.65,1.77,1.77,0,0,1,1.68-.17,16.23,16.23,0,0,1,3.2,3.43,22.68,22.68,0,0,1,3.1,11"/><path class="cls-43" d="M69.68,234.89c3.58-2.48,7.18-4.93,10.74-7.45,1.52-1.08,3-2.3,4.42-3.45,1,1.71,0,3.15-.92,4.35a23.71,23.71,0,0,1-8.42,6.86,5.25,5.25,0,0,1-5.82-.31"/><path class="cls-44" d="M64.36,273.48a7.92,7.92,0,0,1,.25-1.58c.81-2.8,3.46-5.35,5.45-5.32a7.86,7.86,0,0,1,7.32,5.11,7,7,0,0,1-2.8,7.93c-2,1.32-4,1.81-6.23.51s-4.19-2.9-4-6.65"/><path class="cls-45" d="M77.05,295.83c-.3,1.21-.51,2.45-.91,3.62-1.59,4.76-8.49,4.69-10.86,1.22-2-2.94-1-9,2.19-10.54,4.33-2,9.7.51,9.58,5.7"/><path class="cls-46" d="M79.68,222c-2.82,1.93-5.27,3.63-7.74,5.29a1,1,0,0,1-1.42-.68c0-3.14-.06-6.29-.06-9.44a.84.84,0,0,1,1.31-.71c2.55,1.77,5.08,3.56,7.91,5.54"/><path class="cls-47" d="M57.16,223c0,1.74,0,3.48,0,5.21,0,1.51-.54,1.87-2.08,1.87-1.13,0-1.8-.49-1.85-1.62-.08-1.58-.1-3.16-.13-4.74,0-1.89-.07-3.79-.06-5.68s.53-2.36,2.61-2.18a1.37,1.37,0,0,1,1.46,1.46c0,1.89,0,3.79,0,5.68Z"/><path class="cls-48" d="M74.08,274.16a3.29,3.29,0,0,1-3,3.58,3.53,3.53,0,0,1-3.4-3.34c-.06-1.72,1.27-2.75,3.69-2.85a2.51,2.51,0,0,1,2.75,2.61"/><path class="cls-49" d="M71.26,299.93c-2.74-.06-4.73-3.16-3.46-5.4,1.11-2,3.16-2.34,4.77-.83A7.74,7.74,0,0,1,74,295.56a3.06,3.06,0,0,1-2.77,4.37"/></g></svg>