<svg id="Layer_1" data-name="Layer 1" xmlns="http://www.w3.org/2000/svg" xmlns:xlink="http://www.w3.org/1999/xlink" viewBox="0 0 271.84 132.91"><defs><style>.cls-1{fill:none;}.cls-2{clip-path:url(#clip-path);}.cls-3{fill:#f90;}.cls-4{fill:#fcfdfd;}.cls-5{fill:#fefefe;}.cls-6{fill:#fdfefe;}.cls-7{fill:#fdfdfd;}.cls-8{fill:#fafcfc;}.cls-9{fill:#f3f6f6;}.cls-10{fill:#b8baba;}.cls-11{fill:#8ca7a7;}.cls-12{fill:#050404;}.cls-13{fill:#302828;}</style><clipPath id="clip-path"><rect class="cls-1" x="-825.58" y="-791.58" width="1920" height="1080"/></clipPath></defs><title>start_button-mod</title><g class="cls-2"><path d="M137,129.52a256.52,256.52,0,0,1-62.21-7A164.31,164.31,0,0,1,39.7,110,90.54,90.54,0,0,1,21.27,98,50.48,50.48,0,0,1,10.55,85.82C3.37,73.92,3.34,62,10.5,50A50.83,50.83,0,0,1,21.55,37.5c8-6.76,17.13-11.68,26.75-15.71A195.12,195.12,0,0,1,88.73,10.25a274.1,274.1,0,0,1,64-3.65c23.07,1.22,45.69,5.08,67.42,13.29a120,120,0,0,1,24.33,12.23A71.12,71.12,0,0,1,256.65,42.2a44.81,44.81,0,0,1,7.33,10q8.16,15.59.06,31.21a49.13,49.13,0,0,1-11.46,14,89.72,89.72,0,0,1-19.18,12.59,168.26,168.26,0,0,1-38.81,13.4,255.72,255.72,0,0,1-57.6,6.07"/><path class="cls-3" d="M136.84,124.06c-23.57-.26-46.55-2.64-69-9.18a141.54,141.54,0,0,1-30.1-12.29A72,72,0,0,1,21,90a39.78,39.78,0,0,1-6.32-8.4q-7.39-13.47,0-27a45.05,45.05,0,0,1,11.2-13A89.58,89.58,0,0,1,43.62,30.37,165.11,165.11,0,0,1,79.83,18.06c23.87-5.39,48.07-6.91,72.44-5.61,19.84,1.06,39.39,4.15,58.35,10.34A130.13,130.13,0,0,1,238.14,35a69,69,0,0,1,14.27,11.24,39.62,39.62,0,0,1,6.51,8.86c4.49,8.56,4.53,17.12,0,25.69a44.8,44.8,0,0,1-11.73,13.78c-8.25,6.74-17.63,11.51-27.49,15.39a193.57,193.57,0,0,1-38.8,10.43,282.36,282.36,0,0,1-44.09,3.63"/><path d="M131,117.65A241.3,241.3,0,0,1,73.41,110,133.14,133.14,0,0,1,45.66,99.62,61.31,61.31,0,0,1,31.77,90.3a51,51,0,0,1-7-7.82c-6.4-9.17-6.36-19.35-.21-28.7A43.63,43.63,0,0,1,34.84,43.16,83.88,83.88,0,0,1,52.3,33.25,168.85,168.85,0,0,1,88.07,22.73c22.91-4.38,46-5.13,69.22-3.58,18.21,1.22,36.15,4.28,53.5,10.2a112.53,112.53,0,0,1,20.12,8.89,54.2,54.2,0,0,1,13,9.78,42.26,42.26,0,0,1,5.59,7.15c5.07,8.57,5,17.28-.05,25.89a41.18,41.18,0,0,1-11.07,11.82,85.36,85.36,0,0,1-18.78,10.48,169.93,169.93,0,0,1-36.8,10.4c-15.3,2.67-30.73,3.92-51.81,3.89"/><path class="cls-4" d="M33,83.32a22.93,22.93,0,0,1-6.66-10.85C25,67.74,25.87,63.3,28,59a31.69,31.69,0,0,1,8.26-9.84,69.26,69.26,0,0,1,14.58-9.12A138.61,138.61,0,0,1,82.13,29.66a252.72,252.72,0,0,1,67.64-5.27c1.11.07,2.21.22,4.12.41a17.48,17.48,0,0,1-6,1.79c-4.14.32-8.28.84-12.42.82-23.57-.12-46.35,4.31-68.63,11.67A80,80,0,0,0,42.52,52.15c-1.13.88-2.26,1.77-3.31,2.76-6.65,6.23-9.1,13.69-6.46,22.57.45,1.52,1.08,3,1.63,4.48.18,1.07-.26,1.53-1.34,1.36"/><path class="cls-5" d="M161.89,69.38c2.35,1.39,4.4,2.58,6.42,3.81,1.77,1.08,3.56,2.13,5.26,3.31a8.36,8.36,0,0,1,2,2,1.77,1.77,0,0,1-.87,2.73,10.63,10.63,0,0,1-3.71.35,17.78,17.78,0,0,1-7.79-3.44c-2.09-1.42-4.08-3-6-4.46-1.23.34-.85,1.26-.89,2-.1,1.59,0,3.2-.23,4.77a4,4,0,0,1-3.4,3.5,2.82,2.82,0,0,1-3.14-2.2,27.43,27.43,0,0,1-.12-2.87q-.09-9.56-.15-19.11a6.71,6.71,0,0,0-.65-3.68c-.94-1.56-.29-3.07.84-4.35a7.79,7.79,0,0,1,1.38-1.31c5-3.46,10.33-5.58,16.55-4.86a9.45,9.45,0,0,1,7.28,13.57,18.17,18.17,0,0,1-6.67,6.7c-1.84,1.19-3.77,2.23-6,3.55"/><path class="cls-5" d="M144.71,81.6a3,3,0,0,1-1.7,3.06,2.92,2.92,0,0,1-3.57-.19A9.64,9.64,0,0,1,137,81a73.31,73.31,0,0,1-2.21-8.29c-.28-1.29-.83-2-2.18-2-.48,0-1-.07-1.43-.07-3.37,0-3.76.28-4,3.72a14.73,14.73,0,0,1-1.39,6,3.48,3.48,0,0,1-4.48,1.7A3.14,3.14,0,0,1,119,78.42a98.29,98.29,0,0,1,5.61-25.58,29.15,29.15,0,0,1,3-5.41,4.77,4.77,0,0,1,4.64-1.9A3.27,3.27,0,0,1,135,47.16a20.66,20.66,0,0,1,1.5,3,23.68,23.68,0,0,1,1.23,4.11c1.56,8.47,4.13,16.68,6.41,25,.25.92.43,1.86.55,2.4"/><path class="cls-6" d="M69.94,84.21a11,11,0,0,1-10.8-9,3.71,3.71,0,0,1,.78-3.14c1-1.34,2.69-1.43,3.63-.1a22.31,22.31,0,0,1,1.14,2.1c1.57,2.85,3.56,3.85,6.67,3.29a14.27,14.27,0,0,0,2.28-.7c2.14-.79,2.57-2,.94-3.47-2.94-2.7-6-5.3-9.16-7.69a12.87,12.87,0,0,1-4.84-6.91c-1.25-4.3.1-8,3.92-10.32a15.54,15.54,0,0,1,11-2.49c4.44.78,7.28,5.86,5.57,9.88a2.85,2.85,0,0,1-5,.61c-.28-.38-.47-.82-.73-1.22-.57-.88-.45-2.33-1.89-2.49a5.76,5.76,0,0,0-4.93,1.31c-1.28,1.22-1.57,3-.29,4.26A62.39,62.39,0,0,0,75.09,64a24.14,24.14,0,0,1,6.28,6.51,7.86,7.86,0,0,1-2.31,11.27,15.79,15.79,0,0,1-9.12,2.44"/><path class="cls-7" d="M96.43,67.56c-.15-4.15-.29-8.3-.46-12.45-.09-2.21-.24-2.41-2.43-2.51-1.75-.07-3.51.06-5.26,0S86,52,85.9,50.33a12.18,12.18,0,0,1,0-1.91,2.91,2.91,0,0,1,2.4-2.63,8.15,8.15,0,0,1,1.9-.22,118.69,118.69,0,0,1,21.45,1.87,14.46,14.46,0,0,1,1.87.41,3.13,3.13,0,0,1,2.16,3.33,3.25,3.25,0,0,1-2.66,3,34.82,34.82,0,0,1-6.21-.14c-4.4-.53-4.31-.31-4.15,3.75.27,6.87.36,13.73.52,20.6a19,19,0,0,1,0,2.39,3.27,3.27,0,0,1-3,3.22c-2.31.38-3.75-.65-3.83-3-.11-3.67-.05-7.35-.06-11,0-.8,0-1.6,0-2.4h.13"/><path class="cls-7" d="M189.48,67.39c-.13-4.31-.3-8.61-.35-12.92a1.6,1.6,0,0,0-1.73-1.79c-1.91-.08-3.82,0-5.74,0s-2.63-.6-2.7-2.48c-.12-3.29.83-4.5,4-4.57a80.64,80.64,0,0,1,9.58.32c4.44.43,8.88,1,13.28,1.78,2.22.36,3.18,1.81,2.91,3.65A3.47,3.47,0,0,1,205,54.3c-2.4,0-4.78-.31-7.17-.46-1.83-.12-2.2.25-2.15,2.2.19,7.18.4,14.37.59,21.55a23.37,23.37,0,0,1-.06,3.35,3.62,3.62,0,0,1-5.4,2.68,3.1,3.1,0,0,1-1.25-1.87,15.43,15.43,0,0,1-.18-3.34c0-3.67,0-7.34,0-11h.1"/><path class="cls-8" d="M237.43,67c1.56,4.21.4,7.8-2.56,10.94a48,48,0,0,1-3.78,3.63,77.22,77.22,0,0,1-19,11.77,30.28,30.28,0,0,1-5.92,1.62,1.68,1.68,0,0,1-1.37-.91,1.92,1.92,0,0,1,.55-1.64,17.35,17.35,0,0,1,2.87-1.67,111,111,0,0,0,16.48-10.45,39.09,39.09,0,0,0,11-12.36c.42-.57.63-1.53,1.69-.93"/><path class="cls-9" d="M231.35,56.44a4.5,4.5,0,0,1-4.55-4.52,4,4,0,0,1,3.91-4,4.92,4.92,0,0,1,4.57,4.64,3.8,3.8,0,0,1-3.93,3.87"/><path class="cls-10" d="M33,83.32,34.38,82a16.27,16.27,0,0,1,3.6,5.6c-2.5-1.29-4-2.43-4.94-4.24"/><path class="cls-11" d="M237.43,67l-1.69.93a2.39,2.39,0,0,1-.09-.94c.16-.55.39-1.48.69-1.52,1.09-.17,1.25.64,1.09,1.53"/><path class="cls-12" d="M156,64.27a65.4,65.4,0,0,0,0-6.81c-.28-2.41,1-3.38,2.92-4.17a14.27,14.27,0,0,1,7.44-.88c2.31.31,3.07,2.21,1.67,4.17A12.19,12.19,0,0,1,165.67,59a36.73,36.73,0,0,1-9.72,5.3"/><path class="cls-13" d="M131.59,57.49c.31,1.76.6,3.26.82,4.77.16,1.14-.49,1.65-1.55,1.91-1.48.36-2.1-.14-1.73-1.61a40.56,40.56,0,0,1,1.21-4c.13-.35.65-.55,1.25-1"/></g></svg>